<svg width="512" height="512" viewBox="0 0 512 512" fill="none" xmlns="http://www.w3.org/2000/svg">
<g clip-path="url(#clip0_430_17421)">
<mask id="mask0_430_17421" style="mask-type:luminance" maskUnits="userSpaceOnUse" x="0" y="0" width="512" height="512">
<path d="M512 0H0V512H512V0Z" fill="white"/>
</mask>
<g mask="url(#mask0_430_17421)">
<mask id="mask1_430_17421" style="mask-type:alpha" maskUnits="userSpaceOnUse" x="27" y="27" width="458" height="458">
<path d="M152.217 27.6755H138.379V41.5134H152.217V27.6755Z" fill="black"/>
<path d="M193.73 27.6755H179.892V41.5134H193.73V27.6755Z" fill="black"/>
<path d="M207.568 27.6755H193.73V41.5134H207.568V27.6755Z" fill="black"/>
<path d="M221.406 27.6755H207.568V41.5134H221.406V27.6755Z" fill="black"/>
<path d="M249.082 27.6755H235.244V41.5134H249.082V27.6755Z" fill="black"/>
<path d="M290.595 27.6755H276.757V41.5134H290.595V27.6755Z" fill="black"/>
<path d="M359.784 27.6755H345.946V41.5134H359.784V27.6755Z" fill="black"/>
<path d="M166.054 41.5135H152.217V55.3515H166.054V41.5135Z" fill="black"/>
<path d="M179.892 41.5135H166.054V55.3515H179.892V41.5135Z" fill="black"/>
<path d="M193.73 41.5135H179.892V55.3515H193.73V41.5135Z" fill="black"/>
<path d="M207.568 41.5135H193.73V55.3515H207.568V41.5135Z" fill="black"/>
<path d="M221.406 41.5135H207.568V55.3515H221.406V41.5135Z" fill="black"/>
<path d="M235.244 41.5135H221.406V55.3515H235.244V41.5135Z" fill="black"/>
<path d="M290.595 41.5135H276.757V55.3515H290.595V41.5135Z" fill="black"/>
<path d="M304.433 41.5135H290.595V55.3515H304.433V41.5135Z" fill="black"/>
<path d="M179.892 55.3511H166.054V69.1887H179.892V55.3511Z" fill="black"/>
<path d="M207.568 55.3511H193.73V69.1887H207.568V55.3511Z" fill="black"/>
<path d="M235.244 55.3511H221.406V69.1887H235.244V55.3511Z" fill="black"/>
<path d="M249.082 55.3511H235.244V69.1887H249.082V55.3511Z" fill="black"/>
<path d="M262.919 55.3511H249.082V69.1887H262.919V55.3511Z" fill="black"/>
<path d="M276.757 55.3511H262.919V69.1887H276.757V55.3511Z" fill="black"/>
<path d="M290.595 55.3511H276.757V69.1887H290.595V55.3511Z" fill="black"/>
<path d="M304.433 55.3511H290.595V69.1887H304.433V55.3511Z" fill="black"/>
<path d="M332.109 55.3511H318.271V69.1887H332.109V55.3511Z" fill="black"/>
<path d="M359.784 55.3511H345.946V69.1887H359.784V55.3511Z" fill="black"/>
<path d="M152.217 69.1891H138.379V83.0267H152.217V69.1891Z" fill="black"/>
<path d="M166.054 69.1891H152.217V83.0267H166.054V69.1891Z" fill="black"/>
<path d="M193.73 69.1891H179.892V83.0267H193.73V69.1891Z" fill="black"/>
<path d="M207.568 69.1891H193.73V83.0267H207.568V69.1891Z" fill="black"/>
<path d="M262.919 69.1891H249.082V83.0267H262.919V69.1891Z" fill="black"/>
<path d="M276.757 69.1891H262.919V83.0267H276.757V69.1891Z" fill="black"/>
<path d="M332.109 69.1891H318.271V83.0267H332.109V69.1891Z" fill="black"/>
<path d="M345.946 69.1891H332.108V83.0267H345.946V69.1891Z" fill="black"/>
<path d="M152.217 83.0272H138.379V96.8649H152.217V83.0272Z" fill="black"/>
<path d="M166.054 83.0272H152.217V96.8649H166.054V83.0272Z" fill="black"/>
<path d="M262.919 83.0272H249.082V96.8649H262.919V83.0272Z" fill="black"/>
<path d="M276.757 83.0272H262.919V96.8649H276.757V83.0272Z" fill="black"/>
<path d="M304.433 83.0272H290.595V96.8649H304.433V83.0272Z" fill="black"/>
<path d="M332.109 83.0272H318.271V96.8649H332.109V83.0272Z" fill="black"/>
<path d="M345.946 83.0272H332.108V96.8649H345.946V83.0272Z" fill="black"/>
<path d="M152.217 96.8645H138.379V110.703H152.217V96.8645Z" fill="black"/>
<path d="M166.054 96.8645H152.217V110.703H166.054V96.8645Z" fill="black"/>
<path d="M179.892 96.8645H166.054V110.703H179.892V96.8645Z" fill="black"/>
<path d="M207.568 96.8645H193.73V110.703H207.568V96.8645Z" fill="black"/>
<path d="M249.082 96.8645H235.244V110.703H249.082V96.8645Z" fill="black"/>
<path d="M276.757 96.8645H262.919V110.703H276.757V96.8645Z" fill="black"/>
<path d="M318.271 96.8645H304.433V110.703H318.271V96.8645Z" fill="black"/>
<path d="M332.109 96.8645H318.271V110.703H332.109V96.8645Z" fill="black"/>
<path d="M345.946 96.8645H332.108V110.703H345.946V96.8645Z" fill="black"/>
<path d="M359.784 96.8645H345.946V110.703H359.784V96.8645Z" fill="black"/>
<path d="M373.622 96.8645H359.784V110.703H373.622V96.8645Z" fill="black"/>
<path d="M152.217 110.703H138.379V124.541H152.217V110.703Z" fill="black"/>
<path d="M179.892 110.703H166.054V124.541H179.892V110.703Z" fill="black"/>
<path d="M207.568 110.703H193.73V124.541H207.568V110.703Z" fill="black"/>
<path d="M235.244 110.703H221.406V124.541H235.244V110.703Z" fill="black"/>
<path d="M262.919 110.703H249.082V124.541H262.919V110.703Z" fill="black"/>
<path d="M290.595 110.703H276.757V124.541H290.595V110.703Z" fill="black"/>
<path d="M318.271 110.703H304.433V124.541H318.271V110.703Z" fill="black"/>
<path d="M345.946 110.703H332.108V124.541H345.946V110.703Z" fill="black"/>
<path d="M373.622 110.703H359.784V124.541H373.622V110.703Z" fill="black"/>
<path d="M152.217 124.541H138.379V138.379H152.217V124.541Z" fill="black"/>
<path d="M193.73 124.541H179.892V138.379H193.73V124.541Z" fill="black"/>
<path d="M235.244 124.541H221.406V138.379H235.244V124.541Z" fill="black"/>
<path d="M276.757 124.541H262.919V138.379H276.757V124.541Z" fill="black"/>
<path d="M290.595 124.541H276.757V138.379H290.595V124.541Z" fill="black"/>
<path d="M304.433 124.541H290.595V138.379H304.433V124.541Z" fill="black"/>
<path d="M318.271 124.541H304.433V138.379H318.271V124.541Z" fill="black"/>
<path d="M332.109 124.541H318.271V138.379H332.109V124.541Z" fill="black"/>
<path d="M373.622 124.541H359.784V138.379H373.622V124.541Z" fill="black"/>
<path d="M41.514 138.378H27.6762V152.216H41.514V138.378Z" fill="black"/>
<path d="M96.8653 138.378H83.0276V152.216H96.8653V138.378Z" fill="black"/>
<path d="M124.541 138.378H110.703V152.216H124.541V138.378Z" fill="black"/>
<path d="M138.379 138.378H124.541V152.216H138.379V138.378Z" fill="black"/>
<path d="M152.217 138.378H138.379V152.216H152.217V138.378Z" fill="black"/>
<path d="M179.892 138.378H166.054V152.216H179.892V138.378Z" fill="black"/>
<path d="M207.568 138.378H193.73V152.216H207.568V138.378Z" fill="black"/>
<path d="M249.082 138.378H235.244V152.216H249.082V138.378Z" fill="black"/>
<path d="M276.757 138.378H262.919V152.216H276.757V138.378Z" fill="black"/>
<path d="M318.271 138.378H304.433V152.216H318.271V138.378Z" fill="black"/>
<path d="M332.109 138.378H318.271V152.216H332.109V138.378Z" fill="black"/>
<path d="M345.946 138.378H332.108V152.216H345.946V138.378Z" fill="black"/>
<path d="M359.784 138.378H345.946V152.216H359.784V138.378Z" fill="black"/>
<path d="M387.46 138.378H373.622V152.216H387.46V138.378Z" fill="black"/>
<path d="M401.298 138.378H387.46V152.216H401.298V138.378Z" fill="black"/>
<path d="M415.136 138.378H401.298V152.216H415.136V138.378Z" fill="black"/>
<path d="M428.975 138.378H415.136V152.216H428.975V138.378Z" fill="black"/>
<path d="M442.812 138.378H428.975V152.216H442.812V138.378Z" fill="black"/>
<path d="M484.326 138.378H470.485V152.216H484.326V138.378Z" fill="black"/>
<path d="M55.3519 152.216H41.514V166.054H55.3519V152.216Z" fill="black"/>
<path d="M110.703 152.216H96.8653V166.054H110.703V152.216Z" fill="black"/>
<path d="M138.379 152.216H124.541V166.054H138.379V152.216Z" fill="black"/>
<path d="M179.892 152.216H166.054V166.054H179.892V152.216Z" fill="black"/>
<path d="M193.73 152.216H179.892V166.054H193.73V152.216Z" fill="black"/>
<path d="M249.082 152.216H235.244V166.054H249.082V152.216Z" fill="black"/>
<path d="M262.919 152.216H249.082V166.054H262.919V152.216Z" fill="black"/>
<path d="M276.757 152.216H262.919V166.054H276.757V152.216Z" fill="black"/>
<path d="M290.595 152.216H276.757V166.054H290.595V152.216Z" fill="black"/>
<path d="M332.109 152.216H318.271V166.054H332.109V152.216Z" fill="black"/>
<path d="M345.946 152.216H332.108V166.054H345.946V152.216Z" fill="black"/>
<path d="M359.784 152.216H345.946V166.054H359.784V152.216Z" fill="black"/>
<path d="M387.46 152.216H373.622V166.054H387.46V152.216Z" fill="black"/>
<path d="M442.812 152.216H428.975V166.054H442.812V152.216Z" fill="black"/>
<path d="M456.649 152.216H442.812V166.054H456.649V152.216Z" fill="black"/>
<path d="M484.326 152.216H470.485V166.054H484.326V152.216Z" fill="black"/>
<path d="M41.514 166.054H27.6762V179.892H41.514V166.054Z" fill="black"/>
<path d="M69.1895 166.054H55.3519V179.892H69.1895V166.054Z" fill="black"/>
<path d="M96.8653 166.054H83.0276V179.892H96.8653V166.054Z" fill="black"/>
<path d="M110.703 166.054H96.8653V179.892H110.703V166.054Z" fill="black"/>
<path d="M124.541 166.054H110.703V179.892H124.541V166.054Z" fill="black"/>
<path d="M138.379 166.054H124.541V179.892H138.379V166.054Z" fill="black"/>
<path d="M152.217 166.054H138.379V179.892H152.217V166.054Z" fill="black"/>
<path d="M221.406 166.054H207.568V179.892H221.406V166.054Z" fill="black"/>
<path d="M235.244 166.054H221.406V179.892H235.244V166.054Z" fill="black"/>
<path d="M249.082 166.054H235.244V179.892H249.082V166.054Z" fill="black"/>
<path d="M290.595 166.054H276.757V179.892H290.595V166.054Z" fill="black"/>
<path d="M359.784 166.054H345.946V179.892H359.784V166.054Z" fill="black"/>
<path d="M387.46 166.054H373.622V179.892H387.46V166.054Z" fill="black"/>
<path d="M442.812 166.054H428.975V179.892H442.812V166.054Z" fill="black"/>
<path d="M470.485 166.054H456.648V179.892H470.485V166.054Z" fill="black"/>
<path d="M69.1895 179.892H55.3519V193.73H69.1895V179.892Z" fill="black"/>
<path d="M96.8653 179.892H83.0276V193.73H96.8653V179.892Z" fill="black"/>
<path d="M138.379 179.892H124.541V193.73H138.379V179.892Z" fill="black"/>
<path d="M179.892 179.892H166.054V193.73H179.892V179.892Z" fill="black"/>
<path d="M207.568 179.892H193.73V193.73H207.568V179.892Z" fill="black"/>
<path d="M221.406 179.892H207.568V193.73H221.406V179.892Z" fill="black"/>
<path d="M262.919 179.892H249.082V193.73H262.919V179.892Z" fill="black"/>
<path d="M304.433 179.892H290.595V193.73H304.433V179.892Z" fill="black"/>
<path d="M318.271 179.892H304.433V193.73H318.271V179.892Z" fill="black"/>
<path d="M345.946 179.892H332.108V193.73H345.946V179.892Z" fill="black"/>
<path d="M373.622 179.892H359.784V193.73H373.622V179.892Z" fill="black"/>
<path d="M387.46 179.892H373.622V193.73H387.46V179.892Z" fill="black"/>
<path d="M401.298 179.892H387.46V193.73H401.298V179.892Z" fill="black"/>
<path d="M41.514 193.73H27.6762V207.567H41.514V193.73Z" fill="black"/>
<path d="M69.1895 193.73H55.3519V207.567H69.1895V193.73Z" fill="black"/>
<path d="M83.0276 193.73H69.1895V207.567H83.0276V193.73Z" fill="black"/>
<path d="M124.541 193.73H110.703V207.567H124.541V193.73Z" fill="black"/>
<path d="M152.217 193.73H138.379V207.567H152.217V193.73Z" fill="black"/>
<path d="M179.892 193.73H166.054V207.567H179.892V193.73Z" fill="black"/>
<path d="M207.568 193.73H193.73V207.567H207.568V193.73Z" fill="black"/>
<path d="M221.406 193.73H207.568V207.567H221.406V193.73Z" fill="black"/>
<path d="M262.919 193.73H249.082V207.567H262.919V193.73Z" fill="black"/>
<path d="M345.946 193.73H332.108V207.567H345.946V193.73Z" fill="black"/>
<path d="M359.784 193.73H345.946V207.567H359.784V193.73Z" fill="black"/>
<path d="M373.622 193.73H359.784V207.567H373.622V193.73Z" fill="black"/>
<path d="M401.298 193.73H387.46V207.567H401.298V193.73Z" fill="black"/>
<path d="M415.136 193.73H401.298V207.567H415.136V193.73Z" fill="black"/>
<path d="M442.812 193.73H428.975V207.567H442.812V193.73Z" fill="black"/>
<path d="M484.326 193.73H470.485V207.567H484.326V193.73Z" fill="black"/>
<path d="M41.514 207.567H27.6762V221.405H41.514V207.567Z" fill="black"/>
<path d="M69.1895 207.567H55.3519V221.405H69.1895V207.567Z" fill="black"/>
<path d="M83.0276 207.567H69.1895V221.405H83.0276V207.567Z" fill="black"/>
<path d="M96.8653 207.567H83.0276V221.405H96.8653V207.567Z" fill="black"/>
<path d="M110.703 207.567H96.8653V221.405H110.703V207.567Z" fill="black"/>
<path d="M138.379 207.567H124.541V221.405H138.379V207.567Z" fill="black"/>
<path d="M179.892 207.567H166.054V221.405H179.892V207.567Z" fill="black"/>
<path d="M193.73 207.567H179.892V221.405H193.73V207.567Z" fill="black"/>
<path d="M235.244 207.567H221.406V221.405H235.244V207.567Z" fill="black"/>
<path d="M276.757 207.567H262.919V221.405H276.757V207.567Z" fill="black"/>
<path d="M290.595 207.567H276.757V221.405H290.595V207.567Z" fill="black"/>
<path d="M304.433 207.567H290.595V221.405H304.433V207.567Z" fill="black"/>
<path d="M318.271 207.567H304.433V221.405H318.271V207.567Z" fill="black"/>
<path d="M373.622 207.567H359.784V221.405H373.622V207.567Z" fill="black"/>
<path d="M387.46 207.567H373.622V221.405H387.46V207.567Z" fill="black"/>
<path d="M415.136 207.567H401.298V221.405H415.136V207.567Z" fill="black"/>
<path d="M456.649 207.567H442.812V221.405H456.649V207.567Z" fill="black"/>
<path d="M69.1895 221.405H55.3519V235.243H69.1895V221.405Z" fill="black"/>
<path d="M96.8653 221.405H83.0276V235.243H96.8653V221.405Z" fill="black"/>
<path d="M110.703 221.405H96.8653V235.243H110.703V221.405Z" fill="black"/>
<path d="M124.541 221.405H110.703V235.243H124.541V221.405Z" fill="black"/>
<path d="M179.892 221.405H166.054V235.243H179.892V221.405Z" fill="black"/>
<path d="M193.73 221.405H179.892V235.243H193.73V221.405Z" fill="black"/>
<path d="M207.568 221.405H193.73V235.243H207.568V221.405Z" fill="black"/>
<path d="M235.244 221.405H221.406V235.243H235.244V221.405Z" fill="black"/>
<path d="M249.082 221.405H235.244V235.243H249.082V221.405Z" fill="black"/>
<path d="M276.757 221.405H262.919V235.243H276.757V221.405Z" fill="black"/>
<path d="M290.595 221.405H276.757V235.243H290.595V221.405Z" fill="black"/>
<path d="M318.271 221.405H304.433V235.243H318.271V221.405Z" fill="black"/>
<path d="M332.109 221.405H318.271V235.243H332.109V221.405Z" fill="black"/>
<path d="M359.784 221.405H345.946V235.243H359.784V221.405Z" fill="black"/>
<path d="M373.622 221.405H359.784V235.243H373.622V221.405Z" fill="black"/>
<path d="M387.46 221.405H373.622V235.243H387.46V221.405Z" fill="black"/>
<path d="M401.298 221.405H387.46V235.243H401.298V221.405Z" fill="black"/>
<path d="M428.975 221.405H415.136V235.243H428.975V221.405Z" fill="black"/>
<path d="M470.485 221.405H456.648V235.243H470.485V221.405Z" fill="black"/>
<path d="M41.514 235.243H27.6762V249.081H41.514V235.243Z" fill="black"/>
<path d="M55.3519 235.243H41.514V249.081H55.3519V235.243Z" fill="black"/>
<path d="M69.1895 235.243H55.3519V249.081H69.1895V235.243Z" fill="black"/>
<path d="M83.0276 235.243H69.1895V249.081H83.0276V235.243Z" fill="black"/>
<path d="M96.8653 235.243H83.0276V249.081H96.8653V235.243Z" fill="black"/>
<path d="M138.379 235.243H124.541V249.081H138.379V235.243Z" fill="black"/>
<path d="M179.892 235.243H166.054V249.081H179.892V235.243Z" fill="black"/>
<path d="M193.73 235.243H179.892V249.081H193.73V235.243Z" fill="black"/>
<path d="M221.406 235.243H207.568V249.081H221.406V235.243Z" fill="black"/>
<path d="M235.244 235.243H221.406V249.081H235.244V235.243Z" fill="black"/>
<path d="M249.082 235.243H235.244V249.081H249.082V235.243Z" fill="black"/>
<path d="M262.919 235.243H249.082V249.081H262.919V235.243Z" fill="black"/>
<path d="M276.757 235.243H262.919V249.081H276.757V235.243Z" fill="black"/>
<path d="M290.595 235.243H276.757V249.081H290.595V235.243Z" fill="black"/>
<path d="M332.109 235.243H318.271V249.081H332.109V235.243Z" fill="black"/>
<path d="M359.784 235.243H345.946V249.081H359.784V235.243Z" fill="black"/>
<path d="M387.46 235.243H373.622V249.081H387.46V235.243Z" fill="black"/>
<path d="M401.298 235.243H387.46V249.081H401.298V235.243Z" fill="black"/>
<path d="M415.136 235.243H401.298V249.081H415.136V235.243Z" fill="black"/>
<path d="M41.514 249.081H27.6762V262.918H41.514V249.081Z" fill="black"/>
<path d="M55.3519 249.081H41.514V262.918H55.3519V249.081Z" fill="black"/>
<path d="M83.0276 249.081H69.1895V262.918H83.0276V249.081Z" fill="black"/>
<path d="M96.8653 249.081H83.0276V262.918H96.8653V249.081Z" fill="black"/>
<path d="M110.703 249.081H96.8653V262.918H110.703V249.081Z" fill="black"/>
<path d="M124.541 249.081H110.703V262.918H124.541V249.081Z" fill="black"/>
<path d="M152.217 249.081H138.379V262.918H152.217V249.081Z" fill="black"/>
<path d="M166.054 249.081H152.217V262.918H166.054V249.081Z" fill="black"/>
<path d="M207.568 249.081H193.73V262.918H207.568V249.081Z" fill="black"/>
<path d="M276.757 249.081H262.919V262.918H276.757V249.081Z" fill="black"/>
<path d="M290.595 249.081H276.757V262.918H290.595V249.081Z" fill="black"/>
<path d="M304.433 249.081H290.595V262.918H304.433V249.081Z" fill="black"/>
<path d="M318.271 249.081H304.433V262.918H318.271V249.081Z" fill="black"/>
<path d="M332.109 249.081H318.271V262.918H332.109V249.081Z" fill="black"/>
<path d="M345.946 249.081H332.108V262.918H345.946V249.081Z" fill="black"/>
<path d="M373.622 249.081H359.784V262.918H373.622V249.081Z" fill="black"/>
<path d="M401.298 249.081H387.46V262.918H401.298V249.081Z" fill="black"/>
<path d="M428.975 249.081H415.136V262.918H428.975V249.081Z" fill="black"/>
<path d="M442.812 249.081H428.975V262.918H442.812V249.081Z" fill="black"/>
<path d="M470.485 249.081H456.648V262.918H470.485V249.081Z" fill="black"/>
<path d="M41.514 262.919H27.6762V276.756H41.514V262.919Z" fill="black"/>
<path d="M55.3519 262.919H41.514V276.756H55.3519V262.919Z" fill="black"/>
<path d="M96.8653 262.919H83.0276V276.756H96.8653V262.919Z" fill="black"/>
<path d="M110.703 262.919H96.8653V276.756H110.703V262.919Z" fill="black"/>
<path d="M138.379 262.919H124.541V276.756H138.379V262.919Z" fill="black"/>
<path d="M152.217 262.919H138.379V276.756H152.217V262.919Z" fill="black"/>
<path d="M166.054 262.919H152.217V276.756H166.054V262.919Z" fill="black"/>
<path d="M179.892 262.919H166.054V276.756H179.892V262.919Z" fill="black"/>
<path d="M249.082 262.919H235.244V276.756H249.082V262.919Z" fill="black"/>
<path d="M262.919 262.919H249.082V276.756H262.919V262.919Z" fill="black"/>
<path d="M290.595 262.919H276.757V276.756H290.595V262.919Z" fill="black"/>
<path d="M318.271 262.919H304.433V276.756H318.271V262.919Z" fill="black"/>
<path d="M345.946 262.919H332.108V276.756H345.946V262.919Z" fill="black"/>
<path d="M359.784 262.919H345.946V276.756H359.784V262.919Z" fill="black"/>
<path d="M373.622 262.919H359.784V276.756H373.622V262.919Z" fill="black"/>
<path d="M442.812 262.919H428.975V276.756H442.812V262.919Z" fill="black"/>
<path d="M456.649 262.919H442.812V276.756H456.649V262.919Z" fill="black"/>
<path d="M470.485 262.919H456.648V276.756H470.485V262.919Z" fill="black"/>
<path d="M41.514 276.757H27.6762V290.595H41.514V276.757Z" fill="black"/>
<path d="M69.1895 276.757H55.3519V290.595H69.1895V276.757Z" fill="black"/>
<path d="M83.0276 276.757H69.1895V290.595H83.0276V276.757Z" fill="black"/>
<path d="M96.8653 276.757H83.0276V290.595H96.8653V276.757Z" fill="black"/>
<path d="M124.541 276.757H110.703V290.595H124.541V276.757Z" fill="black"/>
<path d="M138.379 276.757H124.541V290.595H138.379V276.757Z" fill="black"/>
<path d="M179.892 276.757H166.054V290.595H179.892V276.757Z" fill="black"/>
<path d="M207.568 276.757H193.73V290.595H207.568V276.757Z" fill="black"/>
<path d="M221.406 276.757H207.568V290.595H221.406V276.757Z" fill="black"/>
<path d="M249.082 276.757H235.244V290.595H249.082V276.757Z" fill="black"/>
<path d="M262.919 276.757H249.082V290.595H262.919V276.757Z" fill="black"/>
<path d="M276.757 276.757H262.919V290.595H276.757V276.757Z" fill="black"/>
<path d="M318.271 276.757H304.433V290.595H318.271V276.757Z" fill="black"/>
<path d="M332.109 276.757H318.271V290.595H332.109V276.757Z" fill="black"/>
<path d="M345.946 276.757H332.108V290.595H345.946V276.757Z" fill="black"/>
<path d="M359.784 276.757H345.946V290.595H359.784V276.757Z" fill="black"/>
<path d="M373.622 276.757H359.784V290.595H373.622V276.757Z" fill="black"/>
<path d="M387.46 276.757H373.622V290.595H387.46V276.757Z" fill="black"/>
<path d="M415.136 276.757H401.298V290.595H415.136V276.757Z" fill="black"/>
<path d="M442.812 276.757H428.975V290.595H442.812V276.757Z" fill="black"/>
<path d="M470.485 276.757H456.648V290.595H470.485V276.757Z" fill="black"/>
<path d="M55.3519 290.594H41.514V304.432H55.3519V290.594Z" fill="black"/>
<path d="M69.1895 290.594H55.3519V304.432H69.1895V290.594Z" fill="black"/>
<path d="M96.8653 290.594H83.0276V304.432H96.8653V290.594Z" fill="black"/>
<path d="M138.379 290.594H124.541V304.432H138.379V290.594Z" fill="black"/>
<path d="M179.892 290.594H166.054V304.432H179.892V290.594Z" fill="black"/>
<path d="M207.568 290.594H193.73V304.432H207.568V290.594Z" fill="black"/>
<path d="M221.406 290.594H207.568V304.432H221.406V290.594Z" fill="black"/>
<path d="M249.082 290.594H235.244V304.432H249.082V290.594Z" fill="black"/>
<path d="M276.757 290.594H262.919V304.432H276.757V290.594Z" fill="black"/>
<path d="M290.595 290.594H276.757V304.432H290.595V290.594Z" fill="black"/>
<path d="M318.271 290.594H304.433V304.432H318.271V290.594Z" fill="black"/>
<path d="M332.109 290.594H318.271V304.432H332.109V290.594Z" fill="black"/>
<path d="M373.622 290.594H359.784V304.432H373.622V290.594Z" fill="black"/>
<path d="M387.46 290.594H373.622V304.432H387.46V290.594Z" fill="black"/>
<path d="M401.298 290.594H387.46V304.432H401.298V290.594Z" fill="black"/>
<path d="M415.136 290.594H401.298V304.432H415.136V290.594Z" fill="black"/>
<path d="M470.485 290.594H456.648V304.432H470.485V290.594Z" fill="black"/>
<path d="M41.514 304.432H27.6762V318.27H41.514V304.432Z" fill="black"/>
<path d="M69.1895 304.432H55.3519V318.27H69.1895V304.432Z" fill="black"/>
<path d="M110.703 304.432H96.8653V318.27H110.703V304.432Z" fill="black"/>
<path d="M124.541 304.432H110.703V318.27H124.541V304.432Z" fill="black"/>
<path d="M138.379 304.432H124.541V318.27H138.379V304.432Z" fill="black"/>
<path d="M166.054 304.432H152.217V318.27H166.054V304.432Z" fill="black"/>
<path d="M193.73 304.432H179.892V318.27H193.73V304.432Z" fill="black"/>
<path d="M221.406 304.432H207.568V318.27H221.406V304.432Z" fill="black"/>
<path d="M235.244 304.432H221.406V318.27H235.244V304.432Z" fill="black"/>
<path d="M290.595 304.432H276.757V318.27H290.595V304.432Z" fill="black"/>
<path d="M304.433 304.432H290.595V318.27H304.433V304.432Z" fill="black"/>
<path d="M318.271 304.432H304.433V318.27H318.271V304.432Z" fill="black"/>
<path d="M401.298 304.432H387.46V318.27H401.298V304.432Z" fill="black"/>
<path d="M415.136 304.432H401.298V318.27H415.136V304.432Z" fill="black"/>
<path d="M428.975 304.432H415.136V318.27H428.975V304.432Z" fill="black"/>
<path d="M442.812 304.432H428.975V318.27H442.812V304.432Z" fill="black"/>
<path d="M41.514 318.27H27.6762V332.108H41.514V318.27Z" fill="black"/>
<path d="M83.0276 318.27H69.1895V332.108H83.0276V318.27Z" fill="black"/>
<path d="M110.703 318.27H96.8653V332.108H110.703V318.27Z" fill="black"/>
<path d="M207.568 318.27H193.73V332.108H207.568V318.27Z" fill="black"/>
<path d="M262.919 318.27H249.082V332.108H262.919V318.27Z" fill="black"/>
<path d="M276.757 318.27H262.919V332.108H276.757V318.27Z" fill="black"/>
<path d="M304.433 318.27H290.595V332.108H304.433V318.27Z" fill="black"/>
<path d="M345.946 318.27H332.108V332.108H345.946V318.27Z" fill="black"/>
<path d="M401.298 318.27H387.46V332.108H401.298V318.27Z" fill="black"/>
<path d="M442.812 318.27H428.975V332.108H442.812V318.27Z" fill="black"/>
<path d="M456.649 318.27H442.812V332.108H456.649V318.27Z" fill="black"/>
<path d="M470.485 318.27H456.648V332.108H470.485V318.27Z" fill="black"/>
<path d="M96.8653 332.108H83.0276V345.946H96.8653V332.108Z" fill="black"/>
<path d="M110.703 332.108H96.8653V345.946H110.703V332.108Z" fill="black"/>
<path d="M124.541 332.108H110.703V345.946H124.541V332.108Z" fill="black"/>
<path d="M138.379 332.108H124.541V345.946H138.379V332.108Z" fill="black"/>
<path d="M193.73 332.108H179.892V345.946H193.73V332.108Z" fill="black"/>
<path d="M207.568 332.108H193.73V345.946H207.568V332.108Z" fill="black"/>
<path d="M235.244 332.108H221.406V345.946H235.244V332.108Z" fill="black"/>
<path d="M262.919 332.108H249.082V345.946H262.919V332.108Z" fill="black"/>
<path d="M290.595 332.108H276.757V345.946H290.595V332.108Z" fill="black"/>
<path d="M304.433 332.108H290.595V345.946H304.433V332.108Z" fill="black"/>
<path d="M332.109 332.108H318.271V345.946H332.109V332.108Z" fill="black"/>
<path d="M359.784 332.108H345.946V345.946H359.784V332.108Z" fill="black"/>
<path d="M373.622 332.108H359.784V345.946H373.622V332.108Z" fill="black"/>
<path d="M387.46 332.108H373.622V345.946H387.46V332.108Z" fill="black"/>
<path d="M456.649 332.108H442.812V345.946H456.649V332.108Z" fill="black"/>
<path d="M470.485 332.108H456.648V345.946H470.485V332.108Z" fill="black"/>
<path d="M83.0276 345.946H69.1895V359.784H83.0276V345.946Z" fill="black"/>
<path d="M96.8653 345.946H83.0276V359.784H96.8653V345.946Z" fill="black"/>
<path d="M110.703 345.946H96.8653V359.784H110.703V345.946Z" fill="black"/>
<path d="M138.379 345.946H124.541V359.784H138.379V345.946Z" fill="black"/>
<path d="M152.217 345.946H138.379V359.784H152.217V345.946Z" fill="black"/>
<path d="M179.892 345.946H166.054V359.784H179.892V345.946Z" fill="black"/>
<path d="M221.406 345.946H207.568V359.784H221.406V345.946Z" fill="black"/>
<path d="M276.757 345.946H262.919V359.784H276.757V345.946Z" fill="black"/>
<path d="M290.595 345.946H276.757V359.784H290.595V345.946Z" fill="black"/>
<path d="M304.433 345.946H290.595V359.784H304.433V345.946Z" fill="black"/>
<path d="M318.271 345.946H304.433V359.784H318.271V345.946Z" fill="black"/>
<path d="M332.109 345.946H318.271V359.784H332.109V345.946Z" fill="black"/>
<path d="M345.946 345.946H332.108V359.784H345.946V345.946Z" fill="black"/>
<path d="M387.46 345.946H373.622V359.784H387.46V345.946Z" fill="black"/>
<path d="M401.298 345.946H387.46V359.784H401.298V345.946Z" fill="black"/>
<path d="M428.975 345.946H415.136V359.784H428.975V345.946Z" fill="black"/>
<path d="M442.812 345.946H428.975V359.784H442.812V345.946Z" fill="black"/>
<path d="M470.485 345.946H456.648V359.784H470.485V345.946Z" fill="black"/>
<path d="M484.326 345.946H470.485V359.784H484.326V345.946Z" fill="black"/>
<path d="M41.514 359.784H27.6762V373.622H41.514V359.784Z" fill="black"/>
<path d="M55.3519 359.784H41.514V373.622H55.3519V359.784Z" fill="black"/>
<path d="M69.1895 359.784H55.3519V373.622H69.1895V359.784Z" fill="black"/>
<path d="M96.8653 359.784H83.0276V373.622H96.8653V359.784Z" fill="black"/>
<path d="M124.541 359.784H110.703V373.622H124.541V359.784Z" fill="black"/>
<path d="M138.379 359.784H124.541V373.622H138.379V359.784Z" fill="black"/>
<path d="M179.892 359.784H166.054V373.622H179.892V359.784Z" fill="black"/>
<path d="M193.73 359.784H179.892V373.622H193.73V359.784Z" fill="black"/>
<path d="M221.406 359.784H207.568V373.622H221.406V359.784Z" fill="black"/>
<path d="M235.244 359.784H221.406V373.622H235.244V359.784Z" fill="black"/>
<path d="M249.082 359.784H235.244V373.622H249.082V359.784Z" fill="black"/>
<path d="M262.919 359.784H249.082V373.622H262.919V359.784Z" fill="black"/>
<path d="M276.757 359.784H262.919V373.622H276.757V359.784Z" fill="black"/>
<path d="M318.271 359.784H304.433V373.622H318.271V359.784Z" fill="black"/>
<path d="M332.109 359.784H318.271V373.622H332.109V359.784Z" fill="black"/>
<path d="M345.946 359.784H332.108V373.622H345.946V359.784Z" fill="black"/>
<path d="M373.622 359.784H359.784V373.622H373.622V359.784Z" fill="black"/>
<path d="M387.46 359.784H373.622V373.622H387.46V359.784Z" fill="black"/>
<path d="M401.298 359.784H387.46V373.622H401.298V359.784Z" fill="black"/>
<path d="M415.136 359.784H401.298V373.622H415.136V359.784Z" fill="black"/>
<path d="M428.975 359.784H415.136V373.622H428.975V359.784Z" fill="black"/>
<path d="M442.812 359.784H428.975V373.622H442.812V359.784Z" fill="black"/>
<path d="M470.485 359.784H456.648V373.622H470.485V359.784Z" fill="black"/>
<path d="M152.217 373.621H138.379V387.459H152.217V373.621Z" fill="black"/>
<path d="M179.892 373.621H166.054V387.459H179.892V373.621Z" fill="black"/>
<path d="M193.73 373.621H179.892V387.459H193.73V373.621Z" fill="black"/>
<path d="M221.406 373.621H207.568V387.459H221.406V373.621Z" fill="black"/>
<path d="M235.244 373.621H221.406V387.459H235.244V373.621Z" fill="black"/>
<path d="M249.082 373.621H235.244V387.459H249.082V373.621Z" fill="black"/>
<path d="M262.919 373.621H249.082V387.459H262.919V373.621Z" fill="black"/>
<path d="M276.757 373.621H262.919V387.459H276.757V373.621Z" fill="black"/>
<path d="M332.109 373.621H318.271V387.459H332.109V373.621Z" fill="black"/>
<path d="M345.946 373.621H332.108V387.459H345.946V373.621Z" fill="black"/>
<path d="M359.784 373.621H345.946V387.459H359.784V373.621Z" fill="black"/>
<path d="M373.622 373.621H359.784V387.459H373.622V373.621Z" fill="black"/>
<path d="M428.975 373.621H415.136V387.459H428.975V373.621Z" fill="black"/>
<path d="M456.649 373.621H442.812V387.459H456.649V373.621Z" fill="black"/>
<path d="M152.217 387.459H138.379V401.297H152.217V387.459Z" fill="black"/>
<path d="M166.054 387.459H152.217V401.297H166.054V387.459Z" fill="black"/>
<path d="M179.892 387.459H166.054V401.297H179.892V387.459Z" fill="black"/>
<path d="M235.244 387.459H221.406V401.297H235.244V387.459Z" fill="black"/>
<path d="M249.082 387.459H235.244V401.297H249.082V387.459Z" fill="black"/>
<path d="M290.595 387.459H276.757V401.297H290.595V387.459Z" fill="black"/>
<path d="M373.622 387.459H359.784V401.297H373.622V387.459Z" fill="black"/>
<path d="M401.298 387.459H387.46V401.297H401.298V387.459Z" fill="black"/>
<path d="M428.975 387.459H415.136V401.297H428.975V387.459Z" fill="black"/>
<path d="M442.812 387.459H428.975V401.297H442.812V387.459Z" fill="black"/>
<path d="M193.73 401.297H179.892V415.135H193.73V401.297Z" fill="black"/>
<path d="M235.244 401.297H221.406V415.135H235.244V401.297Z" fill="black"/>
<path d="M249.082 401.297H235.244V415.135H249.082V401.297Z" fill="black"/>
<path d="M262.919 401.297H249.082V415.135H262.919V401.297Z" fill="black"/>
<path d="M304.433 401.297H290.595V415.135H304.433V401.297Z" fill="black"/>
<path d="M345.946 401.297H332.108V415.135H345.946V401.297Z" fill="black"/>
<path d="M373.622 401.297H359.784V415.135H373.622V401.297Z" fill="black"/>
<path d="M428.975 401.297H415.136V415.135H428.975V401.297Z" fill="black"/>
<path d="M484.326 401.297H470.485V415.135H484.326V401.297Z" fill="black"/>
<path d="M152.217 415.135H138.379V428.971H152.217V415.135Z" fill="black"/>
<path d="M193.73 415.135H179.892V428.971H193.73V415.135Z" fill="black"/>
<path d="M207.568 415.135H193.73V428.971H207.568V415.135Z" fill="black"/>
<path d="M221.406 415.135H207.568V428.971H221.406V415.135Z" fill="black"/>
<path d="M235.244 415.135H221.406V428.971H235.244V415.135Z" fill="black"/>
<path d="M262.919 415.135H249.082V428.971H262.919V415.135Z" fill="black"/>
<path d="M304.433 415.135H290.595V428.971H304.433V415.135Z" fill="black"/>
<path d="M345.946 415.135H332.108V428.971H345.946V415.135Z" fill="black"/>
<path d="M373.622 415.135H359.784V428.971H373.622V415.135Z" fill="black"/>
<path d="M387.46 415.135H373.622V428.971H387.46V415.135Z" fill="black"/>
<path d="M401.298 415.135H387.46V428.971H401.298V415.135Z" fill="black"/>
<path d="M415.136 415.135H401.298V428.971H415.136V415.135Z" fill="black"/>
<path d="M428.975 415.135H415.136V428.971H428.975V415.135Z" fill="black"/>
<path d="M442.812 415.135H428.975V428.971H442.812V415.135Z" fill="black"/>
<path d="M484.326 415.135H470.485V428.971H484.326V415.135Z" fill="black"/>
<path d="M166.054 428.975H152.217V442.812H166.054V428.975Z" fill="black"/>
<path d="M179.892 428.975H166.054V442.812H179.892V428.975Z" fill="black"/>
<path d="M207.568 428.975H193.73V442.812H207.568V428.975Z" fill="black"/>
<path d="M221.406 428.975H207.568V442.812H221.406V428.975Z" fill="black"/>
<path d="M290.595 428.975H276.757V442.812H290.595V428.975Z" fill="black"/>
<path d="M304.433 428.975H290.595V442.812H304.433V428.975Z" fill="black"/>
<path d="M318.271 428.975H304.433V442.812H318.271V428.975Z" fill="black"/>
<path d="M359.784 428.975H345.946V442.812H359.784V428.975Z" fill="black"/>
<path d="M401.298 428.975H387.46V442.812H401.298V428.975Z" fill="black"/>
<path d="M415.136 428.975H401.298V442.812H415.136V428.975Z" fill="black"/>
<path d="M428.975 428.975H415.136V442.812H428.975V428.975Z" fill="black"/>
<path d="M442.812 428.975H428.975V442.812H442.812V428.975Z" fill="black"/>
<path d="M456.649 428.975H442.812V442.812H456.649V428.975Z" fill="black"/>
<path d="M470.485 428.975H456.648V442.812H470.485V428.975Z" fill="black"/>
<path d="M166.054 442.812H152.217V456.649H166.054V442.812Z" fill="black"/>
<path d="M207.568 442.812H193.73V456.649H207.568V442.812Z" fill="black"/>
<path d="M235.244 442.812H221.406V456.649H235.244V442.812Z" fill="black"/>
<path d="M249.082 442.812H235.244V456.649H249.082V442.812Z" fill="black"/>
<path d="M290.595 442.812H276.757V456.649H290.595V442.812Z" fill="black"/>
<path d="M318.271 442.812H304.433V456.649H318.271V442.812Z" fill="black"/>
<path d="M332.109 442.812H318.271V456.649H332.109V442.812Z" fill="black"/>
<path d="M387.46 442.812H373.622V456.649H387.46V442.812Z" fill="black"/>
<path d="M401.298 442.812H387.46V456.649H401.298V442.812Z" fill="black"/>
<path d="M415.136 442.812H401.298V456.649H415.136V442.812Z" fill="black"/>
<path d="M428.975 442.812H415.136V456.649H428.975V442.812Z" fill="black"/>
<path d="M442.812 442.812H428.975V456.649H442.812V442.812Z" fill="black"/>
<path d="M193.73 456.649H179.892V470.485H193.73V456.649Z" fill="black"/>
<path d="M207.568 456.649H193.73V470.485H207.568V456.649Z" fill="black"/>
<path d="M221.406 456.649H207.568V470.485H221.406V456.649Z" fill="black"/>
<path d="M249.082 456.649H235.244V470.485H249.082V456.649Z" fill="black"/>
<path d="M262.919 456.649H249.082V470.485H262.919V456.649Z" fill="black"/>
<path d="M276.757 456.649H262.919V470.485H276.757V456.649Z" fill="black"/>
<path d="M290.595 456.649H276.757V470.485H290.595V456.649Z" fill="black"/>
<path d="M332.109 456.649H318.271V470.485H332.109V456.649Z" fill="black"/>
<path d="M359.784 456.649H345.946V470.485H359.784V456.649Z" fill="black"/>
<path d="M373.622 456.649H359.784V470.485H373.622V456.649Z" fill="black"/>
<path d="M401.298 456.649H387.46V470.485H401.298V456.649Z" fill="black"/>
<path d="M152.217 470.485H138.379V484.326H152.217V470.485Z" fill="black"/>
<path d="M179.892 470.485H166.054V484.326H179.892V470.485Z" fill="black"/>
<path d="M276.757 470.485H262.919V484.326H276.757V470.485Z" fill="black"/>
<path d="M304.433 470.485H290.595V484.326H304.433V470.485Z" fill="black"/>
<path d="M318.271 470.485H304.433V484.326H318.271V470.485Z" fill="black"/>
<path d="M332.109 470.485H318.271V484.326H332.109V470.485Z" fill="black"/>
<path d="M345.946 470.485H332.108V484.326H345.946V470.485Z" fill="black"/>
<path d="M359.784 470.485H345.946V484.326H359.784V470.485Z" fill="black"/>
<path d="M373.622 470.485H359.784V484.326H373.622V470.485Z" fill="black"/>
<path d="M387.46 470.485H373.622V484.326H387.46V470.485Z" fill="black"/>
<path d="M401.298 470.485H387.46V484.326H401.298V470.485Z" fill="black"/>
<path d="M442.812 470.485H428.975V484.326H442.812V470.485Z" fill="black"/>
<path d="M484.326 470.485H470.485V484.326H484.326V470.485Z" fill="black"/>
<path d="M110.011 27.6755H42.2059H27.6762V42.2053V110.01V124.54H42.2059H110.011H124.541V110.01V42.2053V27.6755H110.011ZM110.011 110.01H42.2059V42.2053H110.011V110.01Z" fill="black"/>
<path d="M469.794 27.6755H401.99H387.46V42.2053V110.01V124.54H401.99H469.794H484.326V110.01V42.2053V27.6755H469.794ZM469.794 110.01H401.99V42.2053H469.794V110.01Z" fill="black"/>
<path d="M110.011 387.459H42.2059H27.6762V401.989V469.794V484.322H42.2059H110.011H124.541V469.794V401.989V387.459H110.011ZM110.011 469.794H42.2059V401.989H110.011V469.794Z" fill="black"/>
<path d="M96.8653 55.3511H55.3519V96.8645H96.8653V55.3511Z" fill="black"/>
<path d="M456.649 55.3511H415.136V96.8645H456.649V55.3511Z" fill="black"/>
<path d="M96.8653 415.135H55.3519V456.649H96.8653V415.135Z" fill="black"/>
</mask>
<g mask="url(#mask1_430_17421)">
<path d="M403.849 95.9496C410.476 95.9496 415.849 90.5766 415.849 83.9496V43.9496C415.849 37.3225 410.476 31.9495 403.849 31.9495H107.849C101.222 31.9495 95.8485 37.3225 95.8485 43.9496V88.6976C95.8485 95.3246 101.222 100.698 107.849 100.698H193.129C220.436 100.698 241.389 110.656 254.098 127.95H107.849C101.222 127.95 95.8485 133.323 95.8485 139.95V179.95C95.8485 186.577 101.222 191.95 107.849 191.95H266.605C260.388 228.035 233.644 250.581 191.849 250.581H107.849C101.222 250.581 95.8485 255.954 95.8485 262.581V315.593C95.8485 318.942 97.2484 322.139 99.7094 324.411L264.761 476.766C266.978 478.814 269.884 479.949 272.9 479.949H355.462C366.386 479.949 371.628 466.543 363.602 459.132L212.719 319.855C289.218 317.516 343.863 266.461 351.037 191.95H403.849C410.476 191.95 415.849 186.577 415.849 179.95V139.95C415.849 133.323 410.476 127.95 403.849 127.95H345.158C341.672 116.408 336.879 105.704 330.906 95.9496H403.849Z" fill="white"/>
</g>
<path d="M509.867 72.5333V21.3333C509.867 10.7294 501.269 2.1333 490.667 2.1333H439.467C438.289 2.1333 437.333 3.08843 437.333 4.26663C437.333 5.44483 438.289 6.39997 439.467 6.39997H490.667C498.914 6.39997 505.6 13.0858 505.6 21.3333V72.5333C505.6 73.7113 506.556 74.6666 507.733 74.6666C508.911 74.6666 509.867 73.7113 509.867 72.5333Z" fill="white"/>
<path d="M2.13333 72.5333V21.3333C2.13333 10.7294 10.7295 2.1333 21.3333 2.1333H72.5333C73.7114 2.1333 74.6667 3.08843 74.6667 4.26663C74.6667 5.44483 73.7114 6.39997 72.5333 6.39997H21.3333C13.0859 6.39997 6.4 13.0858 6.4 21.3333V72.5333C6.4 73.7113 5.44486 74.6666 4.26666 74.6666C3.08846 74.6666 2.13333 73.7113 2.13333 72.5333Z" fill="white"/>
<path d="M2.13333 439.467V490.667C2.13333 501.269 10.7295 509.867 21.3333 509.867H72.5333C73.7114 509.867 74.6667 508.911 74.6667 507.733C74.6667 506.556 73.7114 505.6 72.5333 505.6H21.3333C13.0859 505.6 6.4 498.914 6.4 490.667V439.467C6.4 438.289 5.44486 437.333 4.26666 437.333C3.08846 437.333 2.13333 438.289 2.13333 439.467Z" fill="white"/>
<path d="M509.867 439.467V490.667C509.867 501.269 501.269 509.867 490.667 509.867H439.467C438.289 509.867 437.333 508.911 437.333 507.733C437.333 506.556 438.289 505.6 439.467 505.6H490.667C498.914 505.6 505.6 498.914 505.6 490.667V439.467C505.6 438.289 506.556 437.333 507.733 437.333C508.911 437.333 509.867 438.289 509.867 439.467Z" fill="white"/>
</g>
</g>
<defs>
<clipPath id="clip0_430_17421">
<rect width="512" height="512" fill="white"/>
</clipPath>
</defs>
</svg>
