<svg width="512" height="512" viewBox="0 0 512 512" fill="none" xmlns="http://www.w3.org/2000/svg">
<mask id="mask0_430_14064" style="mask-type:luminance" maskUnits="userSpaceOnUse" x="61" y="0" width="387" height="387">
<path d="M447.597 0H61.1824V386.415H447.597V0Z" fill="white"/>
</mask>
<g mask="url(#mask0_430_14064)">
<mask id="mask1_430_14064" style="mask-type:alpha" maskUnits="userSpaceOnUse" x="82" y="20" width="345" height="346">
<path d="M176.063 20.8871H165.619V31.3307H176.063V20.8871Z" fill="black"/>
<path d="M207.394 20.8871H196.95V31.3307H207.394V20.8871Z" fill="black"/>
<path d="M217.838 20.8871H207.394V31.3307H217.838V20.8871Z" fill="black"/>
<path d="M228.281 20.8871H217.838V31.3307H228.281V20.8871Z" fill="black"/>
<path d="M249.168 20.8871H238.725V31.3307H249.168V20.8871Z" fill="black"/>
<path d="M280.499 20.8871H270.056V31.3307H280.499V20.8871Z" fill="black"/>
<path d="M332.716 20.8871H322.273V31.3307H332.716V20.8871Z" fill="black"/>
<path d="M186.506 31.3308H176.063V41.7744H186.506V31.3308Z" fill="black"/>
<path d="M196.95 31.3308H186.506V41.7744H196.95V31.3308Z" fill="black"/>
<path d="M207.394 31.3308H196.95V41.7744H207.394V31.3308Z" fill="black"/>
<path d="M217.838 31.3308H207.394V41.7744H217.838V31.3308Z" fill="black"/>
<path d="M228.281 31.3308H217.838V41.7744H228.281V31.3308Z" fill="black"/>
<path d="M238.725 31.3308H228.281V41.7744H238.725V31.3308Z" fill="black"/>
<path d="M280.499 31.3308H270.056V41.7744H280.499V31.3308Z" fill="black"/>
<path d="M290.943 31.3308H280.499V41.7744H290.943V31.3308Z" fill="black"/>
<path d="M196.95 41.7744H186.506V52.2179H196.95V41.7744Z" fill="black"/>
<path d="M217.838 41.7744H207.394V52.2179H217.838V41.7744Z" fill="black"/>
<path d="M238.725 41.7744H228.281V52.2179H238.725V41.7744Z" fill="black"/>
<path d="M249.168 41.7744H238.725V52.2179H249.168V41.7744Z" fill="black"/>
<path d="M259.612 41.7744H249.169V52.2179H259.612V41.7744Z" fill="black"/>
<path d="M270.056 41.7744H259.612V52.2179H270.056V41.7744Z" fill="black"/>
<path d="M280.499 41.7744H270.056V52.2179H280.499V41.7744Z" fill="black"/>
<path d="M290.943 41.7744H280.499V52.2179H290.943V41.7744Z" fill="black"/>
<path d="M311.831 41.7744H301.387V52.2179H311.831V41.7744Z" fill="black"/>
<path d="M332.716 41.7744H322.273V52.2179H332.716V41.7744Z" fill="black"/>
<path d="M176.063 52.2183H165.619V62.6618H176.063V52.2183Z" fill="black"/>
<path d="M186.506 52.2183H176.063V62.6618H186.506V52.2183Z" fill="black"/>
<path d="M207.394 52.2183H196.95V62.6618H207.394V52.2183Z" fill="black"/>
<path d="M217.838 52.2183H207.394V62.6618H217.838V52.2183Z" fill="black"/>
<path d="M259.612 52.2183H249.169V62.6618H259.612V52.2183Z" fill="black"/>
<path d="M270.056 52.2183H259.612V62.6618H270.056V52.2183Z" fill="black"/>
<path d="M311.831 52.2183H301.387V62.6618H311.831V52.2183Z" fill="black"/>
<path d="M322.273 52.2183H311.831V62.6618H322.273V52.2183Z" fill="black"/>
<path d="M176.063 62.6617H165.619V73.1053H176.063V62.6617Z" fill="black"/>
<path d="M186.506 62.6617H176.063V73.1053H186.506V62.6617Z" fill="black"/>
<path d="M259.612 62.6617H249.169V73.1053H259.612V62.6617Z" fill="black"/>
<path d="M270.056 62.6617H259.612V73.1053H270.056V62.6617Z" fill="black"/>
<path d="M290.943 62.6617H280.499V73.1053H290.943V62.6617Z" fill="black"/>
<path d="M311.831 62.6617H301.387V73.1053H311.831V62.6617Z" fill="black"/>
<path d="M322.273 62.6617H311.831V73.1053H322.273V62.6617Z" fill="black"/>
<path d="M176.063 73.1052H165.619V83.5491H176.063V73.1052Z" fill="black"/>
<path d="M186.506 73.1052H176.063V83.5491H186.506V73.1052Z" fill="black"/>
<path d="M196.95 73.1052H186.506V83.5491H196.95V73.1052Z" fill="black"/>
<path d="M217.838 73.1052H207.394V83.5491H217.838V73.1052Z" fill="black"/>
<path d="M249.168 73.1052H238.725V83.5491H249.168V73.1052Z" fill="black"/>
<path d="M270.056 73.1052H259.612V83.5491H270.056V73.1052Z" fill="black"/>
<path d="M301.387 73.1052H290.943V83.5491H301.387V73.1052Z" fill="black"/>
<path d="M311.831 73.1052H301.387V83.5491H311.831V73.1052Z" fill="black"/>
<path d="M322.273 73.1052H311.831V83.5491H322.273V73.1052Z" fill="black"/>
<path d="M332.716 73.1052H322.273V83.5491H332.716V73.1052Z" fill="black"/>
<path d="M343.162 73.1052H332.716V83.5491H343.162V73.1052Z" fill="black"/>
<path d="M176.063 83.5491H165.619V93.9926H176.063V83.5491Z" fill="black"/>
<path d="M196.95 83.5491H186.506V93.9926H196.95V83.5491Z" fill="black"/>
<path d="M217.838 83.5491H207.394V93.9926H217.838V83.5491Z" fill="black"/>
<path d="M238.725 83.5491H228.281V93.9926H238.725V83.5491Z" fill="black"/>
<path d="M259.612 83.5491H249.169V93.9926H259.612V83.5491Z" fill="black"/>
<path d="M280.499 83.5491H270.056V93.9926H280.499V83.5491Z" fill="black"/>
<path d="M301.387 83.5491H290.943V93.9926H301.387V83.5491Z" fill="black"/>
<path d="M322.273 83.5491H311.831V93.9926H322.273V83.5491Z" fill="black"/>
<path d="M343.162 83.5491H332.716V93.9926H343.162V83.5491Z" fill="black"/>
<path d="M176.063 93.9926H165.619V104.436H176.063V93.9926Z" fill="black"/>
<path d="M207.394 93.9926H196.95V104.436H207.394V93.9926Z" fill="black"/>
<path d="M238.725 93.9926H228.281V104.436H238.725V93.9926Z" fill="black"/>
<path d="M270.056 93.9926H259.612V104.436H270.056V93.9926Z" fill="black"/>
<path d="M280.499 93.9926H270.056V104.436H280.499V93.9926Z" fill="black"/>
<path d="M290.943 93.9926H280.499V104.436H290.943V93.9926Z" fill="black"/>
<path d="M301.387 93.9926H290.943V104.436H301.387V93.9926Z" fill="black"/>
<path d="M311.831 93.9926H301.387V104.436H311.831V93.9926Z" fill="black"/>
<path d="M343.162 93.9926H332.716V104.436H343.162V93.9926Z" fill="black"/>
<path d="M92.5136 104.436H82.0701V114.88H92.5136V104.436Z" fill="black"/>
<path d="M134.288 104.436H123.845V114.88H134.288V104.436Z" fill="black"/>
<path d="M155.176 104.436H144.732V114.88H155.176V104.436Z" fill="black"/>
<path d="M165.619 104.436H155.176V114.88H165.619V104.436Z" fill="black"/>
<path d="M176.063 104.436H165.619V114.88H176.063V104.436Z" fill="black"/>
<path d="M196.95 104.436H186.506V114.88H196.95V104.436Z" fill="black"/>
<path d="M217.838 104.436H207.394V114.88H217.838V104.436Z" fill="black"/>
<path d="M249.168 104.436H238.725V114.88H249.168V104.436Z" fill="black"/>
<path d="M270.056 104.436H259.612V114.88H270.056V104.436Z" fill="black"/>
<path d="M301.387 104.436H290.943V114.88H301.387V104.436Z" fill="black"/>
<path d="M311.831 104.436H301.387V114.88H311.831V104.436Z" fill="black"/>
<path d="M322.273 104.436H311.831V114.88H322.273V104.436Z" fill="black"/>
<path d="M332.716 104.436H322.273V114.88H332.716V104.436Z" fill="black"/>
<path d="M353.605 104.436H343.162V114.88H353.605V104.436Z" fill="black"/>
<path d="M364.048 104.436H353.605V114.88H364.048V104.436Z" fill="black"/>
<path d="M374.491 104.436H364.048V114.88H374.491V104.436Z" fill="black"/>
<path d="M384.937 104.436H374.491V114.88H384.937V104.436Z" fill="black"/>
<path d="M395.38 104.436H384.937V114.88H395.38V104.436Z" fill="black"/>
<path d="M426.712 104.436H416.266V114.88H426.712V104.436Z" fill="black"/>
<path d="M102.957 114.88H92.5139V125.323H102.957V114.88Z" fill="black"/>
<path d="M144.732 114.88H134.288V125.323H144.732V114.88Z" fill="black"/>
<path d="M165.619 114.88H155.176V125.323H165.619V114.88Z" fill="black"/>
<path d="M196.95 114.88H186.506V125.323H196.95V114.88Z" fill="black"/>
<path d="M207.394 114.88H196.95V125.323H207.394V114.88Z" fill="black"/>
<path d="M249.168 114.88H238.725V125.323H249.168V114.88Z" fill="black"/>
<path d="M259.612 114.88H249.169V125.323H259.612V114.88Z" fill="black"/>
<path d="M270.056 114.88H259.612V125.323H270.056V114.88Z" fill="black"/>
<path d="M280.499 114.88H270.056V125.323H280.499V114.88Z" fill="black"/>
<path d="M311.831 114.88H301.387V125.323H311.831V114.88Z" fill="black"/>
<path d="M322.273 114.88H311.831V125.323H322.273V114.88Z" fill="black"/>
<path d="M332.716 114.88H322.273V125.323H332.716V114.88Z" fill="black"/>
<path d="M353.605 114.88H343.162V125.323H353.605V114.88Z" fill="black"/>
<path d="M395.38 114.88H384.937V125.323H395.38V114.88Z" fill="black"/>
<path d="M405.823 114.88H395.38V125.323H405.823V114.88Z" fill="black"/>
<path d="M426.712 114.88H416.266V125.323H426.712V114.88Z" fill="black"/>
<path d="M92.5136 125.324H82.0701V135.767H92.5136V125.324Z" fill="black"/>
<path d="M113.401 125.324H102.957V135.767H113.401V125.324Z" fill="black"/>
<path d="M134.288 125.324H123.845V135.767H134.288V125.324Z" fill="black"/>
<path d="M144.732 125.324H134.288V135.767H144.732V125.324Z" fill="black"/>
<path d="M155.176 125.324H144.732V135.767H155.176V125.324Z" fill="black"/>
<path d="M165.619 125.324H155.176V135.767H165.619V125.324Z" fill="black"/>
<path d="M176.063 125.324H165.619V135.767H176.063V125.324Z" fill="black"/>
<path d="M228.281 125.324H217.838V135.767H228.281V125.324Z" fill="black"/>
<path d="M238.725 125.324H228.281V135.767H238.725V125.324Z" fill="black"/>
<path d="M249.168 125.324H238.725V135.767H249.168V125.324Z" fill="black"/>
<path d="M280.499 125.324H270.056V135.767H280.499V125.324Z" fill="black"/>
<path d="M332.716 125.324H322.273V135.767H332.716V125.324Z" fill="black"/>
<path d="M353.605 125.324H343.162V135.767H353.605V125.324Z" fill="black"/>
<path d="M395.38 125.324H384.937V135.767H395.38V125.324Z" fill="black"/>
<path d="M416.266 125.324H405.823V135.767H416.266V125.324Z" fill="black"/>
<path d="M113.401 135.767H102.957V146.211H113.401V135.767Z" fill="black"/>
<path d="M134.288 135.767H123.845V146.211H134.288V135.767Z" fill="black"/>
<path d="M165.619 135.767H155.176V146.211H165.619V135.767Z" fill="black"/>
<path d="M196.95 135.767H186.506V146.211H196.95V135.767Z" fill="black"/>
<path d="M217.838 135.767H207.394V146.211H217.838V135.767Z" fill="black"/>
<path d="M228.281 135.767H217.838V146.211H228.281V135.767Z" fill="black"/>
<path d="M259.612 135.767H249.169V146.211H259.612V135.767Z" fill="black"/>
<path d="M290.943 135.767H280.499V146.211H290.943V135.767Z" fill="black"/>
<path d="M301.387 135.767H290.943V146.211H301.387V135.767Z" fill="black"/>
<path d="M322.273 135.767H311.831V146.211H322.273V135.767Z" fill="black"/>
<path d="M343.162 135.767H332.716V146.211H343.162V135.767Z" fill="black"/>
<path d="M353.605 135.767H343.162V146.211H353.605V135.767Z" fill="black"/>
<path d="M364.048 135.767H353.605V146.211H364.048V135.767Z" fill="black"/>
<path d="M92.5136 146.211H82.0701V156.655H92.5136V146.211Z" fill="black"/>
<path d="M113.401 146.211H102.957V156.655H113.401V146.211Z" fill="black"/>
<path d="M123.845 146.211H113.401V156.655H123.845V146.211Z" fill="black"/>
<path d="M155.176 146.211H144.732V156.655H155.176V146.211Z" fill="black"/>
<path d="M176.063 146.211H165.619V156.655H176.063V146.211Z" fill="black"/>
<path d="M196.95 146.211H186.506V156.655H196.95V146.211Z" fill="black"/>
<path d="M217.838 146.211H207.394V156.655H217.838V146.211Z" fill="black"/>
<path d="M228.281 146.211H217.838V156.655H228.281V146.211Z" fill="black"/>
<path d="M259.612 146.211H249.169V156.655H259.612V146.211Z" fill="black"/>
<path d="M322.273 146.211H311.831V156.655H322.273V146.211Z" fill="black"/>
<path d="M332.716 146.211H322.273V156.655H332.716V146.211Z" fill="black"/>
<path d="M343.162 146.211H332.716V156.655H343.162V146.211Z" fill="black"/>
<path d="M364.048 146.211H353.605V156.655H364.048V146.211Z" fill="black"/>
<path d="M374.491 146.211H364.048V156.655H374.491V146.211Z" fill="black"/>
<path d="M395.38 146.211H384.937V156.655H395.38V146.211Z" fill="black"/>
<path d="M426.712 146.211H416.266V156.655H426.712V146.211Z" fill="black"/>
<path d="M92.5136 156.655H82.0701V167.098H92.5136V156.655Z" fill="black"/>
<path d="M113.401 156.655H102.957V167.098H113.401V156.655Z" fill="black"/>
<path d="M123.845 156.655H113.401V167.098H123.845V156.655Z" fill="black"/>
<path d="M134.288 156.655H123.845V167.098H134.288V156.655Z" fill="black"/>
<path d="M144.732 156.655H134.288V167.098H144.732V156.655Z" fill="black"/>
<path d="M165.619 156.655H155.176V167.098H165.619V156.655Z" fill="black"/>
<path d="M196.95 156.655H186.506V167.098H196.95V156.655Z" fill="black"/>
<path d="M207.394 156.655H196.95V167.098H207.394V156.655Z" fill="black"/>
<path d="M238.725 156.655H228.281V167.098H238.725V156.655Z" fill="black"/>
<path d="M270.056 156.655H259.612V167.098H270.056V156.655Z" fill="black"/>
<path d="M280.499 156.655H270.056V167.098H280.499V156.655Z" fill="black"/>
<path d="M290.943 156.655H280.499V167.098H290.943V156.655Z" fill="black"/>
<path d="M301.387 156.655H290.943V167.098H301.387V156.655Z" fill="black"/>
<path d="M343.162 156.655H332.716V167.098H343.162V156.655Z" fill="black"/>
<path d="M353.605 156.655H343.162V167.098H353.605V156.655Z" fill="black"/>
<path d="M374.491 156.655H364.048V167.098H374.491V156.655Z" fill="black"/>
<path d="M405.823 156.655H395.38V167.098H405.823V156.655Z" fill="black"/>
<path d="M113.401 167.098H102.957V177.542H113.401V167.098Z" fill="black"/>
<path d="M134.288 167.098H123.845V177.542H134.288V167.098Z" fill="black"/>
<path d="M144.732 167.098H134.288V177.542H144.732V167.098Z" fill="black"/>
<path d="M155.176 167.098H144.732V177.542H155.176V167.098Z" fill="black"/>
<path d="M196.95 167.098H186.506V177.542H196.95V167.098Z" fill="black"/>
<path d="M207.394 167.098H196.95V177.542H207.394V167.098Z" fill="black"/>
<path d="M217.838 167.098H207.394V177.542H217.838V167.098Z" fill="black"/>
<path d="M238.725 167.098H228.281V177.542H238.725V167.098Z" fill="black"/>
<path d="M249.168 167.098H238.725V177.542H249.168V167.098Z" fill="black"/>
<path d="M270.056 167.098H259.612V177.542H270.056V167.098Z" fill="black"/>
<path d="M280.499 167.098H270.056V177.542H280.499V167.098Z" fill="black"/>
<path d="M301.387 167.098H290.943V177.542H301.387V167.098Z" fill="black"/>
<path d="M311.831 167.098H301.387V177.542H311.831V167.098Z" fill="black"/>
<path d="M332.716 167.098H322.273V177.542H332.716V167.098Z" fill="black"/>
<path d="M343.162 167.098H332.716V177.542H343.162V167.098Z" fill="black"/>
<path d="M353.605 167.098H343.162V177.542H353.605V167.098Z" fill="black"/>
<path d="M364.048 167.098H353.605V177.542H364.048V167.098Z" fill="black"/>
<path d="M384.937 167.098H374.491V177.542H384.937V167.098Z" fill="black"/>
<path d="M416.266 167.098H405.823V177.542H416.266V167.098Z" fill="black"/>
<path d="M92.5136 177.542H82.0701V187.985H92.5136V177.542Z" fill="black"/>
<path d="M102.957 177.542H92.5139V187.985H102.957V177.542Z" fill="black"/>
<path d="M113.401 177.542H102.957V187.985H113.401V177.542Z" fill="black"/>
<path d="M123.845 177.542H113.401V187.985H123.845V177.542Z" fill="black"/>
<path d="M134.288 177.542H123.845V187.985H134.288V177.542Z" fill="black"/>
<path d="M165.619 177.542H155.176V187.985H165.619V177.542Z" fill="black"/>
<path d="M196.95 177.542H186.506V187.985H196.95V177.542Z" fill="black"/>
<path d="M207.394 177.542H196.95V187.985H207.394V177.542Z" fill="black"/>
<path d="M228.281 177.542H217.838V187.985H228.281V177.542Z" fill="black"/>
<path d="M238.725 177.542H228.281V187.985H238.725V177.542Z" fill="black"/>
<path d="M249.168 177.542H238.725V187.985H249.168V177.542Z" fill="black"/>
<path d="M259.612 177.542H249.169V187.985H259.612V177.542Z" fill="black"/>
<path d="M270.056 177.542H259.612V187.985H270.056V177.542Z" fill="black"/>
<path d="M280.499 177.542H270.056V187.985H280.499V177.542Z" fill="black"/>
<path d="M311.831 177.542H301.387V187.985H311.831V177.542Z" fill="black"/>
<path d="M332.716 177.542H322.273V187.985H332.716V177.542Z" fill="black"/>
<path d="M353.605 177.542H343.162V187.985H353.605V177.542Z" fill="black"/>
<path d="M364.048 177.542H353.605V187.985H364.048V177.542Z" fill="black"/>
<path d="M374.491 177.542H364.048V187.985H374.491V177.542Z" fill="black"/>
<path d="M92.5136 187.985H82.0701V198.429H92.5136V187.985Z" fill="black"/>
<path d="M102.957 187.985H92.5139V198.429H102.957V187.985Z" fill="black"/>
<path d="M123.845 187.985H113.401V198.429H123.845V187.985Z" fill="black"/>
<path d="M134.288 187.985H123.845V198.429H134.288V187.985Z" fill="black"/>
<path d="M144.732 187.985H134.288V198.429H144.732V187.985Z" fill="black"/>
<path d="M155.176 187.985H144.732V198.429H155.176V187.985Z" fill="black"/>
<path d="M176.063 187.985H165.619V198.429H176.063V187.985Z" fill="black"/>
<path d="M186.506 187.985H176.063V198.429H186.506V187.985Z" fill="black"/>
<path d="M217.838 187.985H207.394V198.429H217.838V187.985Z" fill="black"/>
<path d="M270.056 187.985H259.612V198.429H270.056V187.985Z" fill="black"/>
<path d="M280.499 187.985H270.056V198.429H280.499V187.985Z" fill="black"/>
<path d="M290.943 187.985H280.499V198.429H290.943V187.985Z" fill="black"/>
<path d="M301.387 187.985H290.943V198.429H301.387V187.985Z" fill="black"/>
<path d="M311.831 187.985H301.387V198.429H311.831V187.985Z" fill="black"/>
<path d="M322.273 187.985H311.831V198.429H322.273V187.985Z" fill="black"/>
<path d="M343.162 187.985H332.716V198.429H343.162V187.985Z" fill="black"/>
<path d="M364.048 187.985H353.605V198.429H364.048V187.985Z" fill="black"/>
<path d="M384.937 187.985H374.491V198.429H384.937V187.985Z" fill="black"/>
<path d="M395.38 187.985H384.937V198.429H395.38V187.985Z" fill="black"/>
<path d="M416.266 187.985H405.823V198.429H416.266V187.985Z" fill="black"/>
<path d="M92.5136 198.429H82.0701V208.873H92.5136V198.429Z" fill="black"/>
<path d="M102.957 198.429H92.5139V208.873H102.957V198.429Z" fill="black"/>
<path d="M134.288 198.429H123.845V208.873H134.288V198.429Z" fill="black"/>
<path d="M144.732 198.429H134.288V208.873H144.732V198.429Z" fill="black"/>
<path d="M165.619 198.429H155.176V208.873H165.619V198.429Z" fill="black"/>
<path d="M176.063 198.429H165.619V208.873H176.063V198.429Z" fill="black"/>
<path d="M186.506 198.429H176.063V208.873H186.506V198.429Z" fill="black"/>
<path d="M196.95 198.429H186.506V208.873H196.95V198.429Z" fill="black"/>
<path d="M249.168 198.429H238.725V208.873H249.168V198.429Z" fill="black"/>
<path d="M259.612 198.429H249.169V208.873H259.612V198.429Z" fill="black"/>
<path d="M280.499 198.429H270.056V208.873H280.499V198.429Z" fill="black"/>
<path d="M301.387 198.429H290.943V208.873H301.387V198.429Z" fill="black"/>
<path d="M322.273 198.429H311.831V208.873H322.273V198.429Z" fill="black"/>
<path d="M332.716 198.429H322.273V208.873H332.716V198.429Z" fill="black"/>
<path d="M343.162 198.429H332.716V208.873H343.162V198.429Z" fill="black"/>
<path d="M395.38 198.429H384.937V208.873H395.38V198.429Z" fill="black"/>
<path d="M405.823 198.429H395.38V208.873H405.823V198.429Z" fill="black"/>
<path d="M416.266 198.429H405.823V208.873H416.266V198.429Z" fill="black"/>
<path d="M92.5136 208.873H82.0701V219.317H92.5136V208.873Z" fill="black"/>
<path d="M113.401 208.873H102.957V219.317H113.401V208.873Z" fill="black"/>
<path d="M123.845 208.873H113.401V219.317H123.845V208.873Z" fill="black"/>
<path d="M134.288 208.873H123.845V219.317H134.288V208.873Z" fill="black"/>
<path d="M155.176 208.873H144.732V219.317H155.176V208.873Z" fill="black"/>
<path d="M165.619 208.873H155.176V219.317H165.619V208.873Z" fill="black"/>
<path d="M196.95 208.873H186.506V219.317H196.95V208.873Z" fill="black"/>
<path d="M217.838 208.873H207.394V219.317H217.838V208.873Z" fill="black"/>
<path d="M228.281 208.873H217.838V219.317H228.281V208.873Z" fill="black"/>
<path d="M249.168 208.873H238.725V219.317H249.168V208.873Z" fill="black"/>
<path d="M259.612 208.873H249.169V219.317H259.612V208.873Z" fill="black"/>
<path d="M270.056 208.873H259.612V219.317H270.056V208.873Z" fill="black"/>
<path d="M301.387 208.873H290.943V219.317H301.387V208.873Z" fill="black"/>
<path d="M311.831 208.873H301.387V219.317H311.831V208.873Z" fill="black"/>
<path d="M322.273 208.873H311.831V219.317H322.273V208.873Z" fill="black"/>
<path d="M332.716 208.873H322.273V219.317H332.716V208.873Z" fill="black"/>
<path d="M343.162 208.873H332.716V219.317H343.162V208.873Z" fill="black"/>
<path d="M353.605 208.873H343.162V219.317H353.605V208.873Z" fill="black"/>
<path d="M374.491 208.873H364.048V219.317H374.491V208.873Z" fill="black"/>
<path d="M395.38 208.873H384.937V219.317H395.38V208.873Z" fill="black"/>
<path d="M416.266 208.873H405.823V219.317H416.266V208.873Z" fill="black"/>
<path d="M102.957 219.316H92.5139V229.76H102.957V219.316Z" fill="black"/>
<path d="M113.401 219.316H102.957V229.76H113.401V219.316Z" fill="black"/>
<path d="M134.288 219.316H123.845V229.76H134.288V219.316Z" fill="black"/>
<path d="M165.619 219.316H155.176V229.76H165.619V219.316Z" fill="black"/>
<path d="M196.95 219.316H186.506V229.76H196.95V219.316Z" fill="black"/>
<path d="M217.838 219.316H207.394V229.76H217.838V219.316Z" fill="black"/>
<path d="M228.281 219.316H217.838V229.76H228.281V219.316Z" fill="black"/>
<path d="M249.168 219.316H238.725V229.76H249.168V219.316Z" fill="black"/>
<path d="M270.056 219.316H259.612V229.76H270.056V219.316Z" fill="black"/>
<path d="M280.499 219.316H270.056V229.76H280.499V219.316Z" fill="black"/>
<path d="M301.387 219.316H290.943V229.76H301.387V219.316Z" fill="black"/>
<path d="M311.831 219.316H301.387V229.76H311.831V219.316Z" fill="black"/>
<path d="M343.162 219.316H332.716V229.76H343.162V219.316Z" fill="black"/>
<path d="M353.605 219.316H343.162V229.76H353.605V219.316Z" fill="black"/>
<path d="M364.048 219.316H353.605V229.76H364.048V219.316Z" fill="black"/>
<path d="M374.491 219.316H364.048V229.76H374.491V219.316Z" fill="black"/>
<path d="M416.266 219.316H405.823V229.76H416.266V219.316Z" fill="black"/>
<path d="M92.5136 229.76H82.0701V240.204H92.5136V229.76Z" fill="black"/>
<path d="M113.401 229.76H102.957V240.204H113.401V229.76Z" fill="black"/>
<path d="M144.732 229.76H134.288V240.204H144.732V229.76Z" fill="black"/>
<path d="M155.176 229.76H144.732V240.204H155.176V229.76Z" fill="black"/>
<path d="M165.619 229.76H155.176V240.204H165.619V229.76Z" fill="black"/>
<path d="M186.506 229.76H176.063V240.204H186.506V229.76Z" fill="black"/>
<path d="M207.394 229.76H196.95V240.204H207.394V229.76Z" fill="black"/>
<path d="M228.281 229.76H217.838V240.204H228.281V229.76Z" fill="black"/>
<path d="M238.725 229.76H228.281V240.204H238.725V229.76Z" fill="black"/>
<path d="M280.499 229.76H270.056V240.204H280.499V229.76Z" fill="black"/>
<path d="M290.943 229.76H280.499V240.204H290.943V229.76Z" fill="black"/>
<path d="M301.387 229.76H290.943V240.204H301.387V229.76Z" fill="black"/>
<path d="M364.048 229.76H353.605V240.204H364.048V229.76Z" fill="black"/>
<path d="M374.491 229.76H364.048V240.204H374.491V229.76Z" fill="black"/>
<path d="M384.937 229.76H374.491V240.204H384.937V229.76Z" fill="black"/>
<path d="M395.38 229.76H384.937V240.204H395.38V229.76Z" fill="black"/>
<path d="M92.5136 240.204H82.0701V250.647H92.5136V240.204Z" fill="black"/>
<path d="M123.845 240.204H113.401V250.647H123.845V240.204Z" fill="black"/>
<path d="M144.732 240.204H134.288V250.647H144.732V240.204Z" fill="black"/>
<path d="M217.838 240.204H207.394V250.647H217.838V240.204Z" fill="black"/>
<path d="M259.612 240.204H249.169V250.647H259.612V240.204Z" fill="black"/>
<path d="M270.056 240.204H259.612V250.647H270.056V240.204Z" fill="black"/>
<path d="M290.943 240.204H280.499V250.647H290.943V240.204Z" fill="black"/>
<path d="M322.273 240.204H311.831V250.647H322.273V240.204Z" fill="black"/>
<path d="M364.048 240.204H353.605V250.647H364.048V240.204Z" fill="black"/>
<path d="M395.38 240.204H384.937V250.647H395.38V240.204Z" fill="black"/>
<path d="M405.823 240.204H395.38V250.647H405.823V240.204Z" fill="black"/>
<path d="M416.266 240.204H405.823V250.647H416.266V240.204Z" fill="black"/>
<path d="M134.288 250.647H123.845V261.091H134.288V250.647Z" fill="black"/>
<path d="M144.732 250.647H134.288V261.091H144.732V250.647Z" fill="black"/>
<path d="M155.176 250.647H144.732V261.091H155.176V250.647Z" fill="black"/>
<path d="M165.619 250.647H155.176V261.091H165.619V250.647Z" fill="black"/>
<path d="M207.394 250.647H196.95V261.091H207.394V250.647Z" fill="black"/>
<path d="M217.838 250.647H207.394V261.091H217.838V250.647Z" fill="black"/>
<path d="M238.725 250.647H228.281V261.091H238.725V250.647Z" fill="black"/>
<path d="M259.612 250.647H249.169V261.091H259.612V250.647Z" fill="black"/>
<path d="M280.499 250.647H270.056V261.091H280.499V250.647Z" fill="black"/>
<path d="M290.943 250.647H280.499V261.091H290.943V250.647Z" fill="black"/>
<path d="M311.831 250.647H301.387V261.091H311.831V250.647Z" fill="black"/>
<path d="M332.716 250.647H322.273V261.091H332.716V250.647Z" fill="black"/>
<path d="M343.162 250.647H332.716V261.091H343.162V250.647Z" fill="black"/>
<path d="M353.605 250.647H343.162V261.091H353.605V250.647Z" fill="black"/>
<path d="M405.823 250.647H395.38V261.091H405.823V250.647Z" fill="black"/>
<path d="M416.266 250.647H405.823V261.091H416.266V250.647Z" fill="black"/>
<path d="M123.845 261.091H113.401V271.535H123.845V261.091Z" fill="black"/>
<path d="M134.288 261.091H123.845V271.535H134.288V261.091Z" fill="black"/>
<path d="M144.732 261.091H134.288V271.535H144.732V261.091Z" fill="black"/>
<path d="M165.619 261.091H155.176V271.535H165.619V261.091Z" fill="black"/>
<path d="M176.063 261.091H165.619V271.535H176.063V261.091Z" fill="black"/>
<path d="M196.95 261.091H186.506V271.535H196.95V261.091Z" fill="black"/>
<path d="M228.281 261.091H217.838V271.535H228.281V261.091Z" fill="black"/>
<path d="M270.056 261.091H259.612V271.535H270.056V261.091Z" fill="black"/>
<path d="M280.499 261.091H270.056V271.535H280.499V261.091Z" fill="black"/>
<path d="M290.943 261.091H280.499V271.535H290.943V261.091Z" fill="black"/>
<path d="M301.387 261.091H290.943V271.535H301.387V261.091Z" fill="black"/>
<path d="M311.831 261.091H301.387V271.535H311.831V261.091Z" fill="black"/>
<path d="M322.273 261.091H311.831V271.535H322.273V261.091Z" fill="black"/>
<path d="M353.605 261.091H343.162V271.535H353.605V261.091Z" fill="black"/>
<path d="M364.048 261.091H353.605V271.535H364.048V261.091Z" fill="black"/>
<path d="M384.937 261.091H374.491V271.535H384.937V261.091Z" fill="black"/>
<path d="M395.38 261.091H384.937V271.535H395.38V261.091Z" fill="black"/>
<path d="M416.266 261.091H405.823V271.535H416.266V261.091Z" fill="black"/>
<path d="M426.712 261.091H416.266V271.535H426.712V261.091Z" fill="black"/>
<path d="M92.5136 271.535H82.0701V281.978H92.5136V271.535Z" fill="black"/>
<path d="M102.957 271.535H92.5139V281.978H102.957V271.535Z" fill="black"/>
<path d="M113.401 271.535H102.957V281.978H113.401V271.535Z" fill="black"/>
<path d="M134.288 271.535H123.845V281.978H134.288V271.535Z" fill="black"/>
<path d="M155.176 271.535H144.732V281.978H155.176V271.535Z" fill="black"/>
<path d="M165.619 271.535H155.176V281.978H165.619V271.535Z" fill="black"/>
<path d="M196.95 271.535H186.506V281.978H196.95V271.535Z" fill="black"/>
<path d="M207.394 271.535H196.95V281.978H207.394V271.535Z" fill="black"/>
<path d="M228.281 271.535H217.838V281.978H228.281V271.535Z" fill="black"/>
<path d="M238.725 271.535H228.281V281.978H238.725V271.535Z" fill="black"/>
<path d="M249.168 271.535H238.725V281.978H249.168V271.535Z" fill="black"/>
<path d="M259.612 271.535H249.169V281.978H259.612V271.535Z" fill="black"/>
<path d="M270.056 271.535H259.612V281.978H270.056V271.535Z" fill="black"/>
<path d="M301.387 271.535H290.943V281.978H301.387V271.535Z" fill="black"/>
<path d="M311.831 271.535H301.387V281.978H311.831V271.535Z" fill="black"/>
<path d="M322.273 271.535H311.831V281.978H322.273V271.535Z" fill="black"/>
<path d="M343.162 271.535H332.716V281.978H343.162V271.535Z" fill="black"/>
<path d="M353.605 271.535H343.162V281.978H353.605V271.535Z" fill="black"/>
<path d="M364.048 271.535H353.605V281.978H364.048V271.535Z" fill="black"/>
<path d="M374.491 271.535H364.048V281.978H374.491V271.535Z" fill="black"/>
<path d="M384.937 271.535H374.491V281.978H384.937V271.535Z" fill="black"/>
<path d="M395.38 271.535H384.937V281.978H395.38V271.535Z" fill="black"/>
<path d="M416.266 271.535H405.823V281.978H416.266V271.535Z" fill="black"/>
<path d="M176.063 281.978H165.619V292.422H176.063V281.978Z" fill="black"/>
<path d="M196.95 281.978H186.506V292.422H196.95V281.978Z" fill="black"/>
<path d="M207.394 281.978H196.95V292.422H207.394V281.978Z" fill="black"/>
<path d="M228.281 281.978H217.838V292.422H228.281V281.978Z" fill="black"/>
<path d="M238.725 281.978H228.281V292.422H238.725V281.978Z" fill="black"/>
<path d="M249.168 281.978H238.725V292.422H249.168V281.978Z" fill="black"/>
<path d="M259.612 281.978H249.169V292.422H259.612V281.978Z" fill="black"/>
<path d="M270.056 281.978H259.612V292.422H270.056V281.978Z" fill="black"/>
<path d="M311.831 281.978H301.387V292.422H311.831V281.978Z" fill="black"/>
<path d="M322.273 281.978H311.831V292.422H322.273V281.978Z" fill="black"/>
<path d="M332.716 281.978H322.273V292.422H332.716V281.978Z" fill="black"/>
<path d="M343.162 281.978H332.716V292.422H343.162V281.978Z" fill="black"/>
<path d="M384.937 281.978H374.491V292.422H384.937V281.978Z" fill="black"/>
<path d="M405.823 281.978H395.38V292.422H405.823V281.978Z" fill="black"/>
<path d="M176.063 292.422H165.619V302.866H176.063V292.422Z" fill="black"/>
<path d="M186.506 292.422H176.063V302.866H186.506V292.422Z" fill="black"/>
<path d="M196.95 292.422H186.506V302.866H196.95V292.422Z" fill="black"/>
<path d="M238.725 292.422H228.281V302.866H238.725V292.422Z" fill="black"/>
<path d="M249.168 292.422H238.725V302.866H249.168V292.422Z" fill="black"/>
<path d="M280.499 292.422H270.056V302.866H280.499V292.422Z" fill="black"/>
<path d="M343.162 292.422H332.716V302.866H343.162V292.422Z" fill="black"/>
<path d="M364.048 292.422H353.605V302.866H364.048V292.422Z" fill="black"/>
<path d="M384.937 292.422H374.491V302.866H384.937V292.422Z" fill="black"/>
<path d="M395.38 292.422H384.937V302.866H395.38V292.422Z" fill="black"/>
<path d="M207.394 302.866H196.95V313.309H207.394V302.866Z" fill="black"/>
<path d="M238.725 302.866H228.281V313.309H238.725V302.866Z" fill="black"/>
<path d="M249.168 302.866H238.725V313.309H249.168V302.866Z" fill="black"/>
<path d="M259.612 302.866H249.169V313.309H259.612V302.866Z" fill="black"/>
<path d="M290.943 302.866H280.499V313.309H290.943V302.866Z" fill="black"/>
<path d="M322.273 302.866H311.831V313.309H322.273V302.866Z" fill="black"/>
<path d="M343.162 302.866H332.716V313.309H343.162V302.866Z" fill="black"/>
<path d="M384.937 302.866H374.491V313.309H384.937V302.866Z" fill="black"/>
<path d="M426.712 302.866H416.266V313.309H426.712V302.866Z" fill="black"/>
<path d="M176.063 313.309H165.619V323.751H176.063V313.309Z" fill="black"/>
<path d="M207.394 313.309H196.95V323.751H207.394V313.309Z" fill="black"/>
<path d="M217.838 313.309H207.394V323.751H217.838V313.309Z" fill="black"/>
<path d="M228.281 313.309H217.838V323.751H228.281V313.309Z" fill="black"/>
<path d="M238.725 313.309H228.281V323.751H238.725V313.309Z" fill="black"/>
<path d="M259.612 313.309H249.169V323.751H259.612V313.309Z" fill="black"/>
<path d="M290.943 313.309H280.499V323.751H290.943V313.309Z" fill="black"/>
<path d="M322.273 313.309H311.831V323.751H322.273V313.309Z" fill="black"/>
<path d="M343.162 313.309H332.716V323.751H343.162V313.309Z" fill="black"/>
<path d="M353.605 313.309H343.162V323.751H353.605V313.309Z" fill="black"/>
<path d="M364.048 313.309H353.605V323.751H364.048V313.309Z" fill="black"/>
<path d="M374.491 313.309H364.048V323.751H374.491V313.309Z" fill="black"/>
<path d="M384.937 313.309H374.491V323.751H384.937V313.309Z" fill="black"/>
<path d="M395.38 313.309H384.937V323.751H395.38V313.309Z" fill="black"/>
<path d="M426.712 313.309H416.266V323.751H426.712V313.309Z" fill="black"/>
<path d="M186.506 323.751H176.063V334.198H186.506V323.751Z" fill="black"/>
<path d="M196.95 323.751H186.506V334.198H196.95V323.751Z" fill="black"/>
<path d="M217.838 323.751H207.394V334.198H217.838V323.751Z" fill="black"/>
<path d="M228.281 323.751H217.838V334.198H228.281V323.751Z" fill="black"/>
<path d="M280.499 323.751H270.056V334.198H280.499V323.751Z" fill="black"/>
<path d="M290.943 323.751H280.499V334.198H290.943V323.751Z" fill="black"/>
<path d="M301.387 323.751H290.943V334.198H301.387V323.751Z" fill="black"/>
<path d="M332.716 323.751H322.273V334.198H332.716V323.751Z" fill="black"/>
<path d="M364.048 323.751H353.605V334.198H364.048V323.751Z" fill="black"/>
<path d="M374.491 323.751H364.048V334.198H374.491V323.751Z" fill="black"/>
<path d="M384.937 323.751H374.491V334.198H384.937V323.751Z" fill="black"/>
<path d="M395.38 323.751H384.937V334.198H395.38V323.751Z" fill="black"/>
<path d="M405.823 323.751H395.38V334.198H405.823V323.751Z" fill="black"/>
<path d="M416.266 323.751H405.823V334.198H416.266V323.751Z" fill="black"/>
<path d="M186.506 334.198H176.063V344.64H186.506V334.198Z" fill="black"/>
<path d="M217.838 334.198H207.394V344.64H217.838V334.198Z" fill="black"/>
<path d="M238.725 334.198H228.281V344.64H238.725V334.198Z" fill="black"/>
<path d="M249.168 334.198H238.725V344.64H249.168V334.198Z" fill="black"/>
<path d="M280.499 334.198H270.056V344.64H280.499V334.198Z" fill="black"/>
<path d="M301.387 334.198H290.943V344.64H301.387V334.198Z" fill="black"/>
<path d="M311.831 334.198H301.387V344.64H311.831V334.198Z" fill="black"/>
<path d="M353.605 334.198H343.162V344.64H353.605V334.198Z" fill="black"/>
<path d="M364.048 334.198H353.605V344.64H364.048V334.198Z" fill="black"/>
<path d="M374.491 334.198H364.048V344.64H374.491V334.198Z" fill="black"/>
<path d="M384.937 334.198H374.491V344.64H384.937V334.198Z" fill="black"/>
<path d="M395.38 334.198H384.937V344.64H395.38V334.198Z" fill="black"/>
<path d="M207.394 344.64H196.95V355.083H207.394V344.64Z" fill="black"/>
<path d="M217.838 344.64H207.394V355.083H217.838V344.64Z" fill="black"/>
<path d="M228.281 344.64H217.838V355.083H228.281V344.64Z" fill="black"/>
<path d="M249.168 344.64H238.725V355.083H249.168V344.64Z" fill="black"/>
<path d="M259.612 344.64H249.169V355.083H259.612V344.64Z" fill="black"/>
<path d="M270.056 344.64H259.612V355.083H270.056V344.64Z" fill="black"/>
<path d="M280.499 344.64H270.056V355.083H280.499V344.64Z" fill="black"/>
<path d="M311.831 344.64H301.387V355.083H311.831V344.64Z" fill="black"/>
<path d="M332.716 344.64H322.273V355.083H332.716V344.64Z" fill="black"/>
<path d="M343.162 344.64H332.716V355.083H343.162V344.64Z" fill="black"/>
<path d="M364.048 344.64H353.605V355.083H364.048V344.64Z" fill="black"/>
<path d="M176.063 355.083H165.619V365.526H176.063V355.083Z" fill="black"/>
<path d="M196.95 355.083H186.506V365.526H196.95V355.083Z" fill="black"/>
<path d="M270.056 355.083H259.612V365.526H270.056V355.083Z" fill="black"/>
<path d="M290.943 355.083H280.499V365.526H290.943V355.083Z" fill="black"/>
<path d="M301.387 355.083H290.943V365.526H301.387V355.083Z" fill="black"/>
<path d="M311.831 355.083H301.387V365.526H311.831V355.083Z" fill="black"/>
<path d="M322.273 355.083H311.831V365.526H322.273V355.083Z" fill="black"/>
<path d="M332.716 355.083H322.273V365.526H332.716V355.083Z" fill="black"/>
<path d="M343.162 355.083H332.716V365.526H343.162V355.083Z" fill="black"/>
<path d="M353.605 355.083H343.162V365.526H353.605V355.083Z" fill="black"/>
<path d="M364.048 355.083H353.605V365.526H364.048V355.083Z" fill="black"/>
<path d="M395.38 355.083H384.937V365.526H395.38V355.083Z" fill="black"/>
<path d="M426.712 355.083H416.266V365.526H426.712V355.083Z" fill="black"/>
<path d="M144.21 20.8871H93.0359H82.0701V31.8529V83.0268V93.9926H93.0359H144.21H155.176V83.0268V31.8529V20.8871H144.21ZM144.21 83.0268H93.0359V31.8529H144.21V83.0268Z" fill="black"/>
<path d="M415.744 20.8871H364.57H353.605V31.8529V83.0268V93.9926H364.57H415.744H426.712V83.0268V31.8529V20.8871H415.744ZM415.744 83.0268H364.57V31.8529H415.744V83.0268Z" fill="black"/>
<path d="M144.21 292.422H93.0359H82.0701V303.388V354.562V365.526H93.0359H144.21H155.176V354.562V303.388V292.422H144.21ZM144.21 354.562H93.0359V303.388H144.21V354.562Z" fill="black"/>
<path d="M134.288 41.7744H102.957V73.1053H134.288V41.7744Z" fill="black"/>
<path d="M405.823 41.7744H374.491V73.1053H405.823V41.7744Z" fill="black"/>
<path d="M134.288 313.309H102.957V344.64H134.288V313.309Z" fill="black"/>
</mask>
<g mask="url(#mask1_430_14064)">
<path d="M365.974 72.4148C370.975 72.4148 375.029 68.3597 375.029 63.3582V33.1695C375.029 28.1679 370.975 24.1128 365.974 24.1128H142.577C137.576 24.1128 133.521 28.1679 133.521 33.1695V66.9416C133.521 71.9431 137.576 75.9982 142.577 75.9982H206.939C227.55 75.9982 243.363 83.5136 252.955 96.5657H142.577C137.576 96.5657 133.521 100.621 133.521 105.622V135.811C133.521 140.813 137.576 144.868 142.577 144.868H262.394C257.702 172.102 237.518 189.118 205.973 189.118H142.577C137.576 189.118 133.521 193.173 133.521 198.175V238.184C133.521 240.711 134.577 243.124 136.435 244.839L261.002 359.823C262.675 361.369 264.868 362.225 267.145 362.225H329.454C337.701 362.225 341.655 352.108 335.598 346.514L221.725 241.4C279.46 239.634 320.702 201.102 326.115 144.868H365.974C370.975 144.868 375.029 140.813 375.029 135.811V105.622C375.029 100.621 370.975 96.5657 365.974 96.5657H321.679C319.048 87.8553 315.43 79.7763 310.923 72.4148H365.974Z" fill="white"/>
</g>
<path d="M445.987 54.7422V16.1007C445.987 8.09776 439.499 1.61011 431.497 1.61011H392.855C391.967 1.61011 391.245 2.33096 391.245 3.22017C391.245 4.10938 391.967 4.83023 392.855 4.83023H431.497C437.721 4.83023 442.767 9.87617 442.767 16.1007V54.7422C442.767 55.6313 443.489 56.3522 444.377 56.3522C445.266 56.3522 445.987 55.6313 445.987 54.7422Z" fill="white"/>
<path d="M62.7925 54.7422V16.1007C62.7925 8.09776 69.2801 1.61011 77.283 1.61011H115.925C116.814 1.61011 117.535 2.33096 117.535 3.22017C117.535 4.10938 116.814 4.83023 115.925 4.83023H77.283C71.0585 4.83023 66.0126 9.87617 66.0126 16.1007V54.7422C66.0126 55.6313 65.2916 56.3522 64.4025 56.3522C63.5135 56.3522 62.7925 55.6313 62.7925 54.7422Z" fill="white"/>
<path d="M62.7925 331.673V370.315C62.7925 378.317 69.2801 384.805 77.283 384.805H115.925C116.814 384.805 117.535 384.084 117.535 383.195C117.535 382.306 116.814 381.585 115.925 381.585H77.283C71.0585 381.585 66.0126 376.539 66.0126 370.315V331.673C66.0126 330.784 65.2916 330.063 64.4025 330.063C63.5135 330.063 62.7925 330.784 62.7925 331.673Z" fill="white"/>
<path d="M445.987 331.673V370.315C445.987 378.317 439.499 384.805 431.497 384.805H392.855C391.967 384.805 391.245 384.084 391.245 383.195C391.245 382.306 391.967 381.585 392.855 381.585H431.497C437.721 381.585 442.767 376.539 442.767 370.315V331.673C442.767 330.784 443.489 330.063 444.377 330.063C445.266 330.063 445.987 330.784 445.987 331.673Z" fill="white"/>
</g>
<path d="M61.1824 471.423C61.1824 468.139 61.5192 465.06 62.1925 462.188C62.8659 459.299 63.8393 456.649 65.1125 454.244C66.3861 451.819 67.9231 449.652 69.7238 447.742C71.5389 445.83 73.5734 444.22 75.8278 442.906C78.0819 441.579 80.5411 440.565 83.2055 439.863C85.884 439.164 88.7167 438.813 91.7027 438.813C94.6887 438.813 97.5141 439.164 100.178 439.863C102.857 440.565 105.324 441.579 107.578 442.906C109.832 444.22 111.859 445.83 113.66 447.742C115.475 449.652 117.019 451.819 118.293 454.244C119.566 456.649 120.54 459.299 121.213 462.188C121.886 465.06 122.223 468.139 122.223 471.423C122.223 474.705 121.886 477.793 121.213 480.681C120.54 483.557 119.566 486.204 118.293 488.625C117.019 491.034 115.475 493.191 113.66 495.104C111.859 497.017 109.832 498.633 107.578 499.963C105.324 501.277 102.857 502.282 100.178 502.984C97.5141 503.682 94.6887 504.033 91.7027 504.033C88.7167 504.033 85.884 503.682 83.2055 502.984C80.5411 502.282 78.0819 501.277 75.8278 499.963C73.5734 498.633 71.5389 497.017 69.7238 495.104C67.9231 493.191 66.3861 491.034 65.1125 488.625C63.8393 486.204 62.8659 483.557 62.1925 480.681C61.5192 477.793 61.1824 474.705 61.1824 471.423ZM74.8837 471.423C74.8837 473.655 75.0518 475.719 75.3886 477.616C75.7399 479.499 76.2448 481.212 76.9037 482.761C77.5625 484.291 78.3746 485.65 79.341 486.832C80.307 487.997 81.4122 488.983 82.6564 489.784C83.9007 490.573 85.2766 491.172 86.7843 491.581C88.3068 491.974 89.9461 492.17 91.7027 492.17C93.4593 492.17 95.0913 491.974 96.5992 491.581C98.1214 491.172 99.5048 490.573 100.749 489.784C101.993 488.983 103.098 487.997 104.064 486.832C105.03 485.65 105.843 484.291 106.502 482.761C107.161 481.212 107.658 479.499 107.995 477.616C108.346 475.719 108.522 473.655 108.522 471.423C108.522 469.192 108.346 467.134 107.995 465.25C107.658 463.354 107.161 461.64 106.502 460.108C105.843 458.562 105.03 457.203 104.064 456.037C103.098 454.856 101.993 453.87 100.749 453.081C99.5048 452.28 98.1214 451.681 96.5992 451.288C95.0913 450.879 93.4593 450.676 91.7027 450.676C89.9461 450.676 88.3068 450.879 86.7843 451.288C85.2766 451.681 83.9007 452.28 82.6564 453.081C81.4122 453.87 80.307 454.856 79.341 456.037C78.3746 457.203 77.5625 458.562 76.9037 460.108C76.2448 461.64 75.7399 463.354 75.3886 465.25C75.0518 467.134 74.8837 469.192 74.8837 471.423ZM94.6012 497.532L105.097 494.885L120.708 512H106.436L94.6012 497.532Z" fill="white"/>
<path d="M140.625 502.72H126.748V440.104H157.795C161.338 440.104 164.507 440.549 167.303 441.437C170.099 442.329 172.478 443.598 174.439 445.247C176.4 446.895 177.901 448.889 178.94 451.223C179.98 453.542 180.499 456.147 180.499 459.035C180.499 461.634 180.067 463.981 179.204 466.084C178.34 468.184 177.11 469.987 175.515 471.488C173.919 472.979 171.995 474.122 169.74 474.923C167.501 475.728 164.998 476.128 162.231 476.128V476.086C163.578 476.086 164.844 476.295 166.029 476.72C167.215 477.142 168.32 477.77 169.345 478.601C170.384 479.419 171.343 480.446 172.221 481.689C173.1 482.913 173.905 484.336 174.637 485.956L182.19 502.72H166.798L159.179 486.001C158.623 484.758 158.059 483.737 157.488 482.935C156.917 482.117 156.273 481.47 155.556 480.987C154.839 480.507 154.011 480.169 153.075 479.979C152.138 479.792 151.025 479.696 149.737 479.696H139.813L140.625 478.688V502.72ZM139.879 451.529L140.625 450.586V470.022L139.461 468.535H156.215C157.854 468.535 159.318 468.345 160.606 467.965C161.894 467.572 162.985 467.008 163.878 466.281C164.771 465.537 165.444 464.632 165.898 463.566C166.366 462.487 166.6 461.26 166.6 459.889C166.6 458.546 166.374 457.358 165.92 456.321C165.466 455.287 164.792 454.418 163.9 453.716C163.021 453.001 161.931 452.463 160.628 452.096C159.34 451.719 157.861 451.529 156.193 451.529H139.879Z" fill="white"/>
<path d="M260.023 440.127L230.82 471.884V471.488L262.087 502.72H243.753L219.402 478.098L219.578 478.012V502.72H205.701V440.127H219.578V467.156L219.402 467.066L242.962 440.127H260.023Z" fill="#060D1B"/>
<path d="M277.194 477.397V502.72H264.042V437.937H277.194V469.211L277.128 469.279C277.626 466.667 278.365 464.362 279.346 462.362C280.341 460.349 281.564 458.662 283.013 457.306C284.462 455.951 286.123 454.92 287.997 454.221C289.871 453.506 291.942 453.149 294.211 453.149C296.816 453.149 299.122 453.616 301.127 454.55C303.133 455.484 304.809 456.862 306.155 458.684C307.502 460.51 308.527 462.764 309.229 465.447C309.932 468.119 310.283 471.198 310.283 474.685V502.72H297.131V476.872C297.131 474.814 296.934 473.02 296.538 471.488C296.158 469.942 295.572 468.657 294.782 467.636C294.006 466.616 293.025 465.849 291.839 465.337C290.669 464.828 289.293 464.574 287.711 464.574C286.599 464.574 285.567 464.696 284.616 464.944C283.664 465.192 282.793 465.566 282.003 466.062C281.227 466.541 280.539 467.147 279.939 467.878C279.339 468.593 278.834 469.43 278.424 470.393C278.029 471.343 277.721 472.402 277.501 473.568C277.297 474.737 277.194 476.012 277.194 477.397Z" fill="#060D1B"/>
<path d="M314.907 472.144C314.907 469.227 315.441 466.593 316.51 464.245C317.593 461.895 319.137 459.905 321.142 458.269C323.162 456.62 325.606 455.358 328.475 454.482C331.361 453.593 334.594 453.149 338.181 453.149C341.884 453.149 345.185 453.622 348.083 454.569C350.997 455.519 353.457 456.891 355.46 458.684C357.482 460.465 359.025 462.655 360.094 465.25C361.163 467.849 361.697 470.795 361.697 474.093V502.72H348.546V490.113H348.611C348.26 491.542 347.777 492.885 347.162 494.141C346.547 495.381 345.816 496.518 344.966 497.554C344.116 498.575 343.149 499.49 342.068 500.292C340.998 501.093 339.836 501.779 338.577 502.349C337.318 502.903 335.962 503.318 334.513 503.595C333.064 503.888 331.551 504.033 329.97 504.033C327.496 504.033 325.242 503.692 323.207 503.006C321.186 502.333 319.452 501.377 318.003 500.137C316.568 498.884 315.456 497.381 314.665 495.629C313.875 493.864 313.48 491.916 313.48 489.784C313.48 487.495 313.933 485.453 314.841 483.656C315.763 481.847 317.08 480.317 318.793 479.061C320.52 477.805 322.628 476.852 325.117 476.195C327.606 475.538 330.43 475.21 333.592 475.21H348.875V483.177H334.954C333.592 483.177 332.391 483.293 331.354 483.528C330.327 483.743 329.464 484.088 328.762 484.555C328.06 485.006 327.525 485.569 327.158 486.239C326.807 486.912 326.63 487.691 326.63 488.583C326.63 489.485 326.823 490.296 327.203 491.011C327.583 491.71 328.131 492.302 328.849 492.785C329.567 493.265 330.453 493.639 331.505 493.9C332.575 494.148 333.789 494.273 335.151 494.273C336.439 494.273 337.662 494.164 338.818 493.945C339.974 493.726 341.05 493.41 342.045 493.001C343.04 492.595 343.935 492.106 344.724 491.536C345.529 490.953 346.218 490.303 346.788 489.588C347.358 488.86 347.79 488.078 348.083 487.247C348.392 486.416 348.546 485.534 348.546 484.6V474.093C348.546 472.431 348.305 470.94 347.822 469.63C347.339 468.316 346.643 467.205 345.735 466.303C344.827 465.382 343.707 464.683 342.373 464.2C341.056 463.721 339.556 463.479 337.875 463.479C336.175 463.479 334.703 463.682 333.46 464.091C332.23 464.484 331.212 465.054 330.407 465.798C329.602 466.541 329.003 467.453 328.607 468.535C328.211 469.601 328.015 470.802 328.015 472.144H314.907Z" fill="#060D1B"/>
<path d="M397.186 502.349C395.122 502.916 393.19 503.335 391.39 503.596C389.603 503.872 387.919 504.011 386.338 504.011C383.675 504.011 381.334 503.618 379.312 502.829C377.292 502.056 375.602 500.897 374.24 499.351C372.881 497.79 371.847 495.848 371.145 493.529C370.456 491.208 370.112 488.516 370.112 485.453V443.344H383.266V485.473C383.266 486.861 383.388 488.055 383.639 489.063C383.903 490.071 384.29 490.902 384.802 491.559C385.33 492.199 385.996 492.683 386.802 493.001C387.607 493.31 388.573 493.462 389.7 493.462C390.608 493.462 391.661 493.368 392.862 493.178C394.076 492.972 395.518 492.66 397.186 492.238V502.349ZM397.186 464.88H364.051V454.463H397.186V464.88Z" fill="#060D1B"/>
<path d="M400.806 472.144C400.806 469.227 401.34 466.593 402.409 464.245C403.495 461.895 405.037 459.905 407.043 458.269C409.062 456.62 411.506 455.358 414.375 454.482C417.261 453.593 420.494 453.149 424.081 453.149C427.784 453.149 431.085 453.622 433.983 454.569C436.897 455.519 439.357 456.891 441.36 458.684C443.382 460.465 444.925 462.655 445.994 465.25C447.063 467.849 447.597 470.795 447.597 474.093V502.72H434.447V490.113H434.511C434.16 491.542 433.677 492.885 433.062 494.141C432.447 495.381 431.716 496.518 430.866 497.554C430.016 498.575 429.05 499.49 427.968 500.292C426.899 501.093 425.736 501.779 424.477 502.349C423.218 502.903 421.862 503.318 420.413 503.595C418.964 503.888 417.451 504.033 415.87 504.033C413.397 504.033 411.142 503.692 409.107 503.006C407.085 502.333 405.353 501.377 403.904 500.137C402.467 498.884 401.356 497.381 400.564 495.629C399.775 493.864 399.379 491.916 399.379 489.784C399.379 487.495 399.833 485.453 400.741 483.656C401.662 481.847 402.979 480.317 404.693 479.061C406.422 477.805 408.528 476.852 411.017 476.195C413.506 475.538 416.33 475.21 419.492 475.21H434.775V483.177H420.854C419.492 483.177 418.291 483.293 417.254 483.528C416.227 483.743 415.364 484.088 414.662 484.555C413.96 485.006 413.426 485.569 413.058 486.239C412.707 486.912 412.534 487.691 412.534 488.583C412.534 489.485 412.724 490.296 413.103 491.011C413.483 491.71 414.031 492.302 414.749 492.785C415.467 493.265 416.353 493.639 417.406 493.9C418.475 494.148 419.689 494.273 421.051 494.273C422.339 494.273 423.562 494.164 424.719 493.945C425.875 493.726 426.95 493.41 427.945 493.001C428.94 492.595 429.835 492.106 430.624 491.536C431.429 490.953 432.118 490.303 432.688 489.588C433.258 488.86 433.69 488.078 433.983 487.247C434.292 486.416 434.447 485.534 434.447 484.6V474.093C434.447 472.431 434.205 470.94 433.722 469.63C433.239 468.316 432.543 467.205 431.635 466.303C430.727 465.382 429.607 464.683 428.277 464.2C426.956 463.721 425.456 463.479 423.775 463.479C422.075 463.479 420.606 463.682 419.36 464.091C418.13 464.484 417.113 465.054 416.308 465.798C415.503 466.541 414.904 467.453 414.507 468.535C414.111 469.601 413.915 470.802 413.915 472.144H400.806Z" fill="#060D1B"/>
</svg>
